<?xml version="1.0" encoding="UTF-8"?><svg id="Capa_1" xmlns="http://www.w3.org/2000/svg" viewBox="0 0 60 60"><defs><style>.cls-1{fill:#25b4bd;}.cls-2{fill:#fff;}</style></defs><circle class="cls-1" cx="30" cy="30" r="29.17"/><g><path class="cls-2" d="M19.54,29.76c.12,.08,.27,.15,.37,.25,1.87,1.86,3.73,3.73,5.6,5.59,.58,.58,.78,1.26,.56,2.05-.22,.77-.74,1.26-1.52,1.43-.76,.17-1.41-.07-1.97-.62-1.85-1.86-3.71-3.71-5.56-5.57-.1-.1-.18-.23-.27-.35-.06,0-.12,.02-.18,.02-.07,.22-.21,.44-.21,.66,0,.91-.38,1.57-1.21,1.95-.75,.34-1.58,.14-2.24-.51-.64-.63-1.27-1.27-1.9-1.9-.64-.65-.84-1.48-.5-2.24,.37-.81,1.02-1.22,1.91-1.19,.26,0,.45-.07,.64-.26,1.01-1.03,2.04-2.04,3.04-3.07,.13-.14,.23-.37,.23-.56,0-.91,.37-1.58,1.2-1.95,.77-.35,1.59-.15,2.27,.52,.63,.62,1.25,1.25,1.87,1.87,.64,.65,.84,1.48,.51,2.24-.37,.83-1.04,1.21-1.95,1.21-.22,0-.43,.12-.65,.18l-.06,.23Zm-1.92,1.92c.43,.41,.85,.81,1.26,1.22,1.53,1.53,3.05,3.06,4.6,4.58,.19,.18,.53,.33,.77,.3,.2-.02,.5-.31,.53-.51,.03-.25-.1-.59-.28-.78-1.88-1.91-3.78-3.8-5.67-5.69-.05-.05-.12-.1-.16-.14-.34,.33-.66,.64-1.05,1.02Zm-1.96-.14c.97-.96,1.96-1.93,2.9-2.86-.51-.51-1.04-1.05-1.51-1.52-.97,.95-1.96,1.92-2.91,2.86,.51,.52,1.05,1.06,1.52,1.53Zm4.39-3.51c.47,.02,.77-.05,.92-.39,.15-.33,0-.6-.24-.83-.63-.62-1.25-1.25-1.88-1.87-.34-.33-.73-.35-1-.07-.26,.27-.26,.84,0,1.11,.62,.63,1.24,1.25,1.88,1.87,.11,.11,.28,.16,.32,.18Zm-7.5,2.55c-.37,.05-.67,.13-.81,.47-.14,.34,.01,.59,.26,.83,.62,.61,1.23,1.23,1.85,1.84,.34,.34,.73,.37,1,.1,.28-.27,.28-.86,0-1.14-.61-.62-1.22-1.23-1.85-1.84-.12-.12-.3-.18-.46-.27Z"/><path class="cls-2" d="M49.65,31.31c0,2.32,0,4.65,0,6.97,0,.65-.2,.85-.85,.85-4.66,0-9.33,0-13.99,0-.34,0-.63-.05-.77-.39-.15-.36,.01-.62,.26-.87,4.7-4.7,9.4-9.4,14.1-14.1,.25-.25,.51-.41,.87-.26,.34,.15,.39,.44,.39,.78,0,2.34,0,4.68,0,7.01Zm-1.33-5.42c-3.97,3.97-7.96,7.96-11.91,11.91h11.91v-1.27c-.22-.01-.41-.03-.61-.04v-1.27c.21-.01,.41-.02,.61-.03v-1.95h-.6v-1.28c.22-.01,.41-.03,.6-.04v-1.93c-.22-.01-.4-.02-.59-.03v-1.3h.6v-2.79Z"/><path class="cls-2" d="M29.43,39.12h-1.31v-9.11h-1.28v-1.31h.86c-.27-.54-.49-1.03-.75-1.5-.17-.32-.17-.6,0-.92,.83-1.63,1.64-3.27,2.46-4.91,.14-.29,.31-.51,.67-.51,.35,0,.53,.22,.67,.51,.82,1.64,1.63,3.28,2.46,4.92,.16,.32,.16,.61,0,.92-.25,.46-.47,.94-.73,1.47h.85v1.31h-1.27v9.13h-1.31v-9.09h-1.3v9.09Zm-.01-14.64l-.08-.02c-.27,.53-.5,1.08-.81,1.58-.3,.48-.32,.9,0,1.37,.26,.39,.35,1,.7,1.21,.37,.21,.95,.05,1.44,.08,.22,.01,.34-.06,.44-.26,.23-.49,.48-.97,.72-1.46,.04-.09,.11-.22,.08-.29-.36-.75-.73-1.49-1.1-2.23-.03,0-.06,.02-.09,.03v2.23h-1.29v-2.22Z"/><path class="cls-2" d="M43.4,36.52c-.72,0-1.44,0-2.16,0-.32,0-.56-.1-.69-.4-.12-.3-.04-.55,.19-.77,1.49-1.49,2.98-2.98,4.47-4.47,.22-.23,.48-.3,.78-.17,.28,.12,.39,.35,.39,.65,0,1.48,0,2.96,0,4.45,0,.48-.24,.72-.73,.72-.75,0-1.5,0-2.24,0Zm1.66-3.4c-.69,.69-1.41,1.41-2.07,2.07h2.07v-2.07Z"/></g></svg>