<?xml version="1.0" encoding="UTF-8"?>
<svg id="Capa_2" data-name="Capa 2" xmlns="http://www.w3.org/2000/svg" viewBox="0 0 61.89 61.89">
  <defs>
    <style>
      .cls-1 {
        fill: #25b4bd;
      }

      .cls-2 {
        fill: #fff;
      }
    </style>
  </defs>
  <g id="Capa_1-2" data-name="Capa 1">
    <g>
      <circle class="cls-1" cx="30.95" cy="30.95" r="30.95"/>
      <g>
        <path class="cls-2" d="M27.94,31.03c-.61-.6-1.23-1.21-1.86-1.81-.05-.05-.2-.03-.29,0-2.25,.74-4.25,.3-5.99-1.28-1.75-1.59-2.32-4.31-1.4-6.49,.19-.46,.56-.53,.91-.18,.88,.88,1.75,1.76,2.62,2.64,.09,.09,.17,.19,.24,.27,.57-.55,1.1-1.08,1.66-1.62-.06-.07-.13-.15-.21-.22-.92-.92-1.83-1.84-2.75-2.76-.44-.44-.4-.74,.17-1.04,3.4-1.79,7.64,.24,8.41,4.02,.22,1.09,.16,2.16-.22,3.21-.03,.09-.03,.25,.03,.31,.59,.61,1.2,1.2,1.82,1.81,.05-.04,.12-.09,.17-.14,1.2-1.2,2.41-2.39,3.58-3.62,.33-.35,.59-.81,.77-1.26,.3-.76,.05-1.43-.54-1.97-.79-.74-1.77-1.14-2.78-1.46-.27-.08-.54-.15-.81-.22-.23-.05-.38-.17-.43-.4-.05-.24,.08-.4,.26-.53,.79-.57,1.66-.94,2.61-1.13,1.44-.28,2.83-.11,4.13,.54,1.97,.99,3.56,2.38,4.48,4.43,.17,.37,.22,.78,.34,1.17,.03,.1,.11,.22,.21,.27,.46,.23,.94,.44,1.41,.66,.98,.46,1.15,1.39,.4,2.16-.59,.61-1.19,1.21-1.8,1.8-.73,.72-1.66,.55-2.1-.37-.24-.49-.45-1-.68-1.5-.25-.55-.65-.8-1.26-.71-.75,.11-1.42,.4-1.96,.93-1.24,1.21-2.47,2.42-3.76,3.68,.18,.15,.3,.24,.41,.35,3.17,3.18,6.34,6.38,9.51,9.56,1.35,1.35,.61,3.26-.86,3.75-.86,.29-1.62,.06-2.25-.57-1.83-1.83-3.64-3.67-5.47-5.5-1.46-1.46-2.94-2.9-4.46-4.39-.23,.24-.49,.52-.76,.79-.6,.61-1.22,1.21-1.81,1.83-.09,.09-.15,.26-.14,.39,.02,.36-.09,.66-.35,.92-2.36,2.37-4.72,4.75-7.08,7.12-.5,.5-1.09,.5-1.59,.01-.53-.52-1.05-1.04-1.56-1.57-.49-.5-.48-1.09,.02-1.59,2.34-2.36,4.69-4.72,7.03-7.08,.27-.27,.58-.4,.97-.38,.1,0,.25-.02,.32-.09,.88-.87,1.75-1.75,2.62-2.63,.02-.02,.03-.05,.08-.13Zm-6.1-11.8c1.01,1,1.97,1.94,2.93,2.89,.34,.34,.34,.55,0,.89-.7,.7-1.39,1.4-2.09,2.11-.36,.37-.57,.36-.93,0-.82-.82-1.63-1.64-2.45-2.46-.06-.06-.13-.11-.21-.18-.19,.63-.2,1.24-.12,1.84,.47,3.35,3.91,5.18,6.83,3.86,.3-.14,.52-.08,.75,.15,.61,.63,1.24,1.25,1.86,1.87,.07,.07,.14,.13,.21,.2-.01-.03-.03-.06-.04-.09,.58-.57,1.16-1.14,1.78-1.74-.65-.64-1.33-1.3-1.99-1.95-.35-.34-.36-.43-.18-.87,.94-2.23,.19-4.77-1.84-6.07-1.39-.9-2.88-1.03-4.51-.42Zm10.82,11.81c-.53,.53-1.11,1.1-1.74,1.72,.08,.06,.17,.11,.24,.18,1.5,1.51,3,3.02,4.5,4.52,1.71,1.72,3.42,3.44,5.13,5.16,.3,.3,.65,.47,1.07,.4,.52-.09,.87-.41,1.03-.89,.17-.49,.02-.92-.35-1.28-1.52-1.53-3.04-3.06-4.57-4.58-1.77-1.75-3.55-3.48-5.33-5.23Zm4.39-5.7c.72-.41,1.48-.75,2.35-.67,.76,.07,1.4,.36,1.72,1.13,.22,.52,.46,1.04,.7,1.55,.18,.39,.32,.41,.61,.12,.57-.57,1.14-1.14,1.71-1.72,.32-.32,.3-.46-.12-.65-.59-.27-1.18-.54-1.77-.8-.24-.11-.36-.28-.36-.56,0-.23-.04-.46-.09-.68-.2-.84-.65-1.54-1.21-2.17-1.36-1.51-2.93-2.68-5.04-2.86-.96-.08-1.88,.12-2.8,.53,.14,.05,.23,.08,.32,.11,.92,.34,1.81,.75,2.54,1.42,.8,.73,1.27,1.61,1.01,2.71-.12,.52-.39,1.01-.59,1.53,.31,.3,.66,.64,1.03,1Zm-10.51,11.3c-.63-.62-1.21-1.19-1.72-1.7-2.42,2.38-4.87,4.78-7.31,7.18,.61,.59,1.19,1.16,1.72,1.69,2.42-2.37,4.86-4.77,7.31-7.17Zm8.83-11.47c-3.16,3.11-6.33,6.22-9.47,9.3,.35,.34,.66,.65,.86,.85,3.14-3.08,6.31-6.19,9.48-9.31-.33-.32-.63-.61-.87-.84Z"/>
        <path class="cls-2" d="M25.68,23.82c.28,0,.48,.22,.47,.5-.01,.27-.21,.46-.49,.45-.28,0-.48-.21-.47-.5,.01-.27,.22-.46,.49-.46Z"/>
        <path class="cls-2" d="M27,23.44c0,.28-.21,.5-.48,.5-.25,0-.47-.22-.48-.47,0-.28,.2-.48,.49-.48,.28,0,.47,.19,.47,.46Z"/>
        <path class="cls-2" d="M25.31,25.16c0,.26-.23,.5-.5,.49-.26,0-.46-.22-.47-.48,0-.28,.21-.49,.49-.49,.26,0,.47,.23,.47,.48Z"/>
        <path class="cls-2" d="M23.98,25.54c.27,0,.48,.2,.49,.46,0,.25-.24,.5-.49,.5-.27,0-.48-.23-.48-.5,0-.27,.21-.46,.48-.46Z"/>
        <path class="cls-2" d="M23.62,26.88c0,.27-.24,.48-.51,.47-.26-.01-.47-.24-.46-.49,0-.27,.23-.48,.51-.46,.26,.01,.47,.23,.46,.48Z"/>
        <path class="cls-2" d="M40.14,21.25c-.1,.13-.18,.32-.32,.37-.15,.06-.39,.04-.52-.05-.42-.32-.8-.68-1.19-1.04-.2-.19-.21-.44-.05-.64,.16-.21,.42-.27,.63-.1,.44,.36,.86,.74,1.27,1.12,.07,.07,.09,.19,.16,.34Z"/>
        <path class="cls-2" d="M37.17,19.93c-.38-.15-.69-.24-.96-.39-.21-.12-.27-.34-.16-.58,.11-.22,.29-.34,.54-.28,.27,.07,.53,.17,.78,.29,.24,.12,.32,.36,.21,.58-.08,.16-.28,.26-.41,.37Z"/>
      </g>
    </g>
  </g>
</svg>