<?xml version="1.0" encoding="UTF-8"?>
<svg id="Capa_2" data-name="Capa 2" xmlns="http://www.w3.org/2000/svg" viewBox="0 0 61.89 61.89">
  <defs>
    <style>
      .cls-1 {
        fill: #25b4bd;
      }

      .cls-2 {
        fill: #fff;
      }
    </style>
  </defs>
  <g id="Capa_1-2" data-name="Capa 1">
    <g>
      <circle class="cls-1" cx="30.95" cy="30.95" r="30.95"/>
      <g>
        <path class="cls-2" d="M45.64,38.4c-.12,.43-.19,.88-.36,1.29-.75,1.82-2.1,2.93-4.05,3.24-2.81,.45-5.33-1.51-5.82-4.08,0-.05-.03-.09-.06-.16h-3.61c0-.13,0-.23,0-.33-.02-.97,0-1.93-.05-2.9-.08-1.55-.6-2.97-1.48-4.24-1.07-1.54-2.48-2.64-4.26-3.24-2.52-.85-4.94-.59-7.25,.75-.18,.11-.36,.22-.53,.34-.17,.12-.34,.25-.52,.38-.37-.45-.73-.88-1.1-1.33,1.19-.98,2.51-1.65,3.99-2.04v-5.48h-1.7v-1.71h13.74v1.69h-1.4c.69,2.32,1.38,4.6,2.06,6.88h3.78c0-.11,0-.22,0-.32,0-1.33,0-2.66,0-3.99,.01-1.31,.97-2.38,2.26-2.55,.09-.01,.19-.01,.3-.02,0,.58,0,1.14,0,1.7-.71,.24-.84,.43-.84,1.19,0,1.32,0,2.64,0,4,.18,0,.35,0,.51,0,.7,.04,1.43-.01,2.11,.13,1.46,.31,2.53,1.73,2.54,3.22,0,.97,0,1.93,0,2.9,0,.11,.04,.25,.11,.33,.86,.85,1.39,1.85,1.56,3.05,0,.02,.03,.04,.05,.07v1.21Zm-23.35-12.62c.07,0,.11,.01,.14,0,2.27-.12,4.37,.4,6.29,1.63,.06,.04,.14,.08,.21,.08,.82,0,1.64,0,2.51,0-.69-2.31-1.38-4.6-2.06-6.86h-7.1v5.15Zm18.17,8.61c-1.88,0-3.43,1.56-3.43,3.44,0,1.88,1.57,3.46,3.45,3.45,1.88,0,3.43-1.56,3.43-3.44,0-1.88-1.57-3.46-3.45-3.45Zm1.73-1.43c0-.63,0-1.22,0-1.81,0-1.21-.72-1.93-1.92-1.93-3.03,0-6.06,0-9.09,0h-.32c.07,.1,.1,.15,.15,.2,.76,.9,1.36,1.89,1.77,2.99,.08,.21,.19,.26,.4,.26,2,0,4,0,6,0,1.01,0,2.03-.1,3.02,.29Zm-8.81,1.44c.04,.86,.08,1.7,.12,2.57,.57,0,1.15,0,1.72,0,.07,0,.16-.12,.2-.21,.23-.55,.44-1.11,.68-1.65,.11-.24,.3-.45,.48-.7h-3.2Z"/>
        <path class="cls-2" d="M23.13,29.21c3.8,0,6.89,3.08,6.9,6.88,0,3.8-3.08,6.89-6.88,6.9-3.8,0-6.89-3.08-6.9-6.88,0-3.8,3.08-6.89,6.88-6.9Zm5.18,6.85c-.08-2.94-2.38-5.14-5.21-5.11-2.86,.02-5.15,2.38-5.12,5.18,.04,2.85,2.4,5.19,5.2,5.14,2.93-.06,5.11-2.37,5.13-5.2Z"/>
        <path class="cls-2" d="M41.33,37.83c0,.49-.39,.86-.88,.85-.47,0-.84-.39-.84-.87,0-.49,.39-.86,.88-.85,.47,0,.84,.39,.84,.87Z"/>
        <path class="cls-2" d="M25.72,36.11c0,1.42-1.17,2.58-2.6,2.58-1.42,0-2.58-1.18-2.57-2.6,0-1.41,1.17-2.56,2.58-2.56,1.42,0,2.59,1.16,2.58,2.59Zm-1.72,0c0-.46-.41-.86-.87-.85-.45,0-.84,.4-.85,.85,0,.45,.4,.87,.85,.87,.46,0,.86-.41,.86-.86Z"/>
      </g>
    </g>
  </g>
</svg>