<?xml version="1.0" encoding="UTF-8"?><svg id="Capa_1" xmlns="http://www.w3.org/2000/svg" viewBox="0 0 60 60"><defs><style>.cls-1{fill:#25b4bd;}.cls-2{fill:#fff;}</style></defs><circle class="cls-1" cx="30" cy="30" r="29.17"/><g><path class="cls-2" d="M46.86,37.98c-.16,.3-.41,.39-.74,.38-.49-.02-.98,0-1.5,0-.05,1.1-.46,2-1.31,2.67-.64,.5-1.37,.73-2.17,.7-1.38-.05-3.08-1.08-3.23-3.34h-11.84c-.05,1.12-.49,2.04-1.39,2.7-.64,.47-1.37,.68-2.16,.64-1.3-.07-3-1.03-3.16-3.36-.11,0-.23,0-.34,0-.79,0-1.58,0-2.37,0-.76,0-1.2-.45-1.2-1.21,0-.34,0-.67,0-1.05-.49,0-.95,0-1.41,0-.13,0-.26,0-.39-.01-.26-.04-.41-.21-.43-.46-.02-.27,.11-.46,.38-.54,.1-.03,.22-.03,.32-.03,1.57,0,3.13,0,4.7,0,.08,0,.15,0,.23,.01,.29,.05,.48,.27,.47,.54-.01,.27-.22,.49-.52,.49-.64,.01-1.27,0-1.91,0-.12,0-.23,0-.37,0v1.17c.08,.01,.16,.03,.25,.03,.85,0,1.71,0,2.56,0,.19,0,.26-.07,.33-.23,.6-1.29,1.63-2.01,3.05-2.01,1.44,0,2.47,.71,3.08,2.02,.08,.17,.16,.22,.34,.22,3.47,0,6.95,0,10.42,0,.07,0,.15-.01,.26-.02v-.36c0-1.11,0-2.21,0-3.32,0-.09,0-.18,0-.26,.03-.31,.24-.53,.52-.53,.29,0,.52,.22,.53,.55,0,1.18,0,2.37,0,3.55,0,.08-.01,.16,0,.23,.02,.06,.07,.15,.11,.16,.06,0,.13-.05,.18-.1,.03-.02,.03-.08,.05-.12,.61-1.29,1.63-2.01,3.05-2.01,1.44,0,2.47,.72,3.08,2.02,.08,.17,.16,.23,.34,.22,.36-.01,.72,0,1.1,0v-2.33c-.18,0-.38,0-.57,0-.97-.03-1.64-.71-1.65-1.68,0-.34,0-.68,0-1.02,0-.41,.19-.6,.61-.6,.49,0,.99,0,1.52,0-.08-.35-.25-.62-.52-.78-.3-.18-.65-.38-.98-.39-2.06-.04-4.12-.02-6.18-.02-.04,0-.08,.01-.16,.03,0,.19,0,.38,0,.56-.02,.32-.22,.53-.51,.53-.28,0-.5-.2-.54-.51,0-.1,0-.2,0-.3,0-2.96,0-5.92,0-8.88v-.41H16.49c0,.12,0,.25,0,.38,0,2.97,0,5.94,0,8.91,0,.11,0,.22,0,.33-.03,.29-.2,.46-.49,.48-.27,.02-.46-.13-.53-.4-.03-.11-.03-.24-.03-.36,0-3.05,0-6.09,0-9.14,0-.85,.42-1.27,1.27-1.27,6.63,0,13.26,0,19.89,0,.84,0,1.25,.41,1.26,1.25,0,.32,0,.63,0,.98,.14,0,.25,.02,.37,.02,1.13,0,2.26,.02,3.39,0,1.42-.04,2.66,.94,2.41,2.87-.02,.18-.21,.33-.36,.56,.25,1,.52,2.09,.8,3.18,.02,.08,.12,.19,.2,.21,1.18,.3,1.89,1.04,2.15,2.23,0,.03,.03,.06,.05,.09v6.18Zm-3.48-8.57c0-.08,0-.15-.02-.21-.24-.98-.49-1.95-.73-2.93-.05-.22-.15-.29-.38-.29-1.36,.01-2.72,0-4.07,0-.1,0-.19,.01-.3,.02v3.4h5.5Zm-2.09,11.26c1.25,0,2.28-1.04,2.28-2.29,0-1.25-1.03-2.28-2.28-2.28-1.26,0-2.31,1.05-2.29,2.3,.02,1.25,1.05,2.27,2.3,2.27Zm-18.57,0c1.25,0,2.27-1.01,2.29-2.27,.01-1.26-1.03-2.31-2.29-2.3-1.25,0-2.28,1.04-2.27,2.29,0,1.25,1.03,2.28,2.28,2.28Zm15.17-16.94v1.17h5.09c.02-.68-.47-1.16-1.19-1.17-.79,0-1.58,0-2.36,0-.5,0-1,0-1.53,0Zm6.78,9.01c-.17,.99,.2,1.35,1.13,1.13v-1.13h-1.13Z"/><path class="cls-2" d="M31.15,36.1c-1.23,0-2.45,0-3.68,0-.11,0-.22,0-.33-.01-.28-.04-.43-.23-.44-.49-.01-.25,.12-.44,.38-.51,.11-.03,.24-.03,.36-.03,2.49,0,4.97,0,7.46,0,.08,0,.15,0,.23,0,.31,.04,.51,.27,.49,.55-.02,.27-.22,.47-.52,.48-.39,.01-.79,0-1.18,0-.92,0-1.84,0-2.76,0Z"/><path class="cls-2" d="M18.19,33.85c-1.07,0-2.15,0-3.22,0-.41,0-.65-.2-.65-.52,0-.32,.25-.53,.66-.53,2.17,0,4.34,0,6.5,0,.25,0,.48,.06,.57,.3,.05,.15,.05,.4-.04,.51-.12,.13-.35,.23-.53,.23-1.09,.02-2.19,.01-3.28,.01Z"/><path class="cls-2" d="M41.27,37.3c-.61,0-1.09,.48-1.09,1.08,0,.6,.49,1.09,1.09,1.09,.59,0,1.09-.5,1.09-1.09,0-.6-.48-1.08-1.09-1.08Z"/><path class="cls-2" d="M23.8,38.4c0-.61-.46-1.09-1.07-1.09-.61,0-1.1,.47-1.1,1.07,0,.59,.49,1.1,1.08,1.1,.59,0,1.09-.48,1.09-1.08Z"/><path class="cls-2" d="M41.27,37.3c.61,0,1.09,.48,1.09,1.08,0,.59-.5,1.09-1.09,1.09-.59,0-1.09-.49-1.09-1.09,0-.6,.48-1.08,1.09-1.08Z"/><path class="cls-2" d="M23.8,38.4c0,.6-.5,1.09-1.09,1.08-.59,0-1.09-.52-1.08-1.1,0-.6,.5-1.07,1.1-1.07,.61,0,1.08,.48,1.07,1.09Z"/></g></svg>