<?xml version="1.0" encoding="UTF-8"?>
<svg id="Capa_2" data-name="Capa 2" xmlns="http://www.w3.org/2000/svg" viewBox="0 0 61.89 61.89">
  <defs>
    <style>
      .cls-1 {
        fill: #25b4bd;
      }

      .cls-2 {
        fill: #fff;
      }
    </style>
  </defs>
  <g id="Capa_1-2" data-name="Capa 1">
    <g>
      <circle class="cls-1" cx="30.95" cy="30.95" r="30.95"/>
      <g>
        <path class="cls-2" d="M12.03,29.54c.21-.75,.48-1.46,1.03-2.04,.75-.78,1.64-1.25,2.73-1.28,.9-.03,1.6-.38,2.09-1.16,.36-.57,.75-1.13,1.12-1.69,.84-1.26,2.01-1.9,3.54-1.89,3.68,.01,7.36,.01,11.04,0,1.07,0,1.99,.33,2.82,1,1.96,1.57,3.92,3.13,5.88,4.71,.49,.39,1.02,.58,1.66,.6,.8,.02,1.62,0,2.38,.18,1.73,.44,2.69,1.72,3.22,3.35,.32,.98,.44,1.99,.18,3.01-.39,1.47-1.34,2.39-2.8,2.79-.21,.06-.29,.14-.35,.35-.85,2.94-4.35,3.9-6.56,1.8-.49-.46-.85-1.02-1.02-1.68-.06-.24-.15-.33-.42-.33-5.08,0-10.17,.01-15.25,0-.3,0-.36,.15-.43,.37-.77,2.46-3.67,3.56-5.83,2.19-.88-.56-1.48-1.35-1.77-2.37-.03-.12-.17-.26-.29-.3-1.57-.5-2.58-1.52-2.91-3.16,0-.03-.04-.06-.06-.09,0-1.45,0-2.9,0-4.36Zm34.6,5.99c.74-.21,1.28-.7,1.48-1.39,.32-1.13,.07-2.19-.46-3.2-.44-.85-1.13-1.4-2.08-1.53-.5-.07-1.01-.03-1.51-.03-1.03,0-1.95-.3-2.76-.95-1.93-1.56-3.88-3.1-5.82-4.66-.54-.43-1.12-.69-1.82-.69-3.72,0-7.43,0-11.15,0-.97,0-1.69,.42-2.21,1.23-.38,.59-.78,1.17-1.17,1.75-.52,.79-1.22,1.35-2.14,1.59-.44,.11-.9,.15-1.35,.19-.96,.09-1.95,1.02-1.98,1.98-.04,1.28-.04,2.56,0,3.84,.03,.84,.81,1.7,1.6,1.85,.64-1.84,1.89-2.99,3.88-2.97,2.04,.02,3.28,1.22,3.87,3.12h15.87c.51-1.83,1.83-2.98,3.6-3.13,1.79-.16,3.11,.8,4.15,3.01Zm-27.5,3.27c1.29,0,2.35-1.06,2.35-2.34,0-1.29-1.08-2.35-2.38-2.35-1.28,0-2.35,1.1-2.33,2.36,.02,1.29,1.08,2.33,2.37,2.32Zm23.63,0c1.29,0,2.35-1.05,2.35-2.34,0-1.29-1.08-2.36-2.38-2.35-1.28,0-2.35,1.09-2.33,2.36,.02,1.29,1.08,2.33,2.36,2.33Z"/>
        <path class="cls-2" d="M30.94,27.78c2.33,0,4.61,0,6.88,0,.55,0,.85,.2,.96,.62,.1,.38-.11,.8-.48,.91-.17,.05-.36,.07-.54,.07-2.45,0-4.89,0-7.34,0-.78,0-1.06-.29-1.07-1.07,0-.87,0-1.75,0-2.62,0-.19,.02-.4,.08-.58,.12-.34,.49-.52,.87-.45,.36,.06,.62,.36,.63,.75,.01,.66,0,1.33,0,1.99,0,.12,0,.23,0,.36Z"/>
        <path class="cls-2" d="M22,27.78c.18,0,.31,0,.44,0,1.46,0,2.92,0,4.39,0,.53,0,.87,.24,.94,.65,.09,.56-.27,.95-.92,.96-1.28,0-2.56,0-3.83,0-.73,0-1.45,0-2.18,0-.78,0-1.13-.58-.78-1.28,.47-.96,.95-1.91,1.43-2.87,.14-.27,.3-.51,.63-.57,.32-.06,.59,.02,.79,.28,.21,.27,.21,.57,.07,.87-.25,.52-.51,1.03-.77,1.55-.06,.12-.11,.24-.19,.41Z"/>
        <path class="cls-2" d="M32.55,30.95c.26,0,.52-.01,.77,0,.42,.02,.74,.34,.77,.75,.03,.39-.27,.77-.7,.8-.6,.03-1.2,.03-1.8,0-.41-.03-.67-.39-.66-.79,.02-.39,.32-.71,.73-.75,.02,0,.05,0,.07,0,.27,0,.54,0,.81,0h0Z"/>
      </g>
    </g>
  </g>
</svg>