<?xml version="1.0" encoding="UTF-8"?>
<svg id="Capa_2" data-name="Capa 2" xmlns="http://www.w3.org/2000/svg" viewBox="0 0 61.89 61.89">
  <defs>
    <style>
      .cls-1 {
        fill: #25b4bd;
      }

      .cls-2 {
        stroke-linecap: square;
      }

      .cls-2, .cls-3, .cls-4 {
        fill: none;
        stroke: #fff;
        stroke-linejoin: round;
        stroke-width: 1.07px;
      }

      .cls-3 {
        stroke-linecap: round;
      }
    </style>
  </defs>
  <g id="Capa_1-2" data-name="Capa 1">
    <g>
      <circle class="cls-1" cx="30.95" cy="30.95" r="30.95"/>
      <g>
        <g>
          <path class="cls-4" d="M33.32,18.88c0-1.48-1.2-2.68-2.68-2.68-1.04,0-1.93,.6-2.38,1.46-.88-.5-1.9-.79-2.99-.79s-2.1,.29-2.99,.79c-.44-.87-1.34-1.46-2.38-1.46-1.48,0-2.68,1.2-2.68,2.68,0,1.31,.94,2.39,2.18,2.63-.11,.45-.17,.91-.17,1.39,0,3.33,2.7,6.03,6.03,6.03s6.03-2.7,6.03-6.03c0-.48-.06-.94-.17-1.39,1.24-.24,2.18-1.32,2.18-2.63Z"/>
          <line class="cls-3" x1="25.27" y1="24.24" x2="25.27" y2="25.34"/>
          <polyline class="cls-3" points="23.93 24.24 25.27 24.24 26.62 24.24"/>
          <line class="cls-4" x1="22.59" y1="21.56" x2="22.59" y2="22.9"/>
          <line class="cls-4" x1="27.96" y1="21.56" x2="27.96" y2="22.9"/>
          <path class="cls-4" d="M21.25,32.96c-.61,.54-.94,1.27-1.12,1.92"/>
          <path class="cls-4" d="M29.3,32.96c.61,.55,.95,1.29,1.13,1.95"/>
          <path class="cls-4" d="M31.24,28.78c2.51,1.61,4.23,3.97,4.76,5.37,.67,1.79,.77,3.55-1.91,4.14"/>
          <path class="cls-4" d="M19.55,28.67c-2.67,1.61-4.38,4.02-4.93,5.48-.67,1.79-.83,3.53,1.85,4.13"/>
          <ellipse class="cls-4" cx="30.64" cy="41" rx="4.02" ry="4.69"/>
          <ellipse class="cls-4" cx="19.91" cy="41" rx="4.02" ry="4.69"/>
        </g>
        <g>
          <line class="cls-4" x1="42.39" y1="39.28" x2="47.69" y2="39.28"/>
          <polygon class="cls-2" points="47.69 41.7 44.97 44.68 42.25 41.7 42.25 16.91 47.69 16.91 47.69 41.7"/>
        </g>
        <line class="cls-4" x1="45.11" y1="18.63" x2="45.11" y2="37.51"/>
      </g>
    </g>
  </g>
</svg>