<?xml version="1.0" encoding="UTF-8"?>
<svg id="Capa_2" data-name="Capa 2" xmlns="http://www.w3.org/2000/svg" viewBox="0 0 61.89 61.89">
  <defs>
    <style>
      .cls-1 {
        fill: #25b4bd;
      }

      .cls-2 {
        fill: #fff;
      }
    </style>
  </defs>
  <g id="Capa_1-2" data-name="Capa 1">
    <g>
      <circle class="cls-1" cx="30.95" cy="30.95" r="30.95"/>
      <g>
        <path class="cls-2" d="M22.58,32.68c-.16,0-.31-.04-.46-.13-.41-.25-.54-.79-.29-1.2,.75-1.22,2.05-1.95,3.48-1.95,.48,0,.87,.39,.87,.87s-.39,.87-.87,.87c-.82,0-1.56,.42-1.99,1.12-.16,.27-.45,.42-.75,.42"/>
        <path class="cls-2" d="M23.97,33.54c-.17,0-.3-.15-.27-.32,.15-.8,.85-1.41,1.7-1.41s1.55,.61,1.7,1.41c.03,.17-.1,.32-.27,.32h-2.85Z"/>
        <path class="cls-2" d="M33.31,33.54c-.17,0-.3-.15-.27-.32,.15-.8,.85-1.41,1.7-1.41s1.55,.61,1.7,1.41c.03,.17-.1,.32-.27,.32h-2.85Z"/>
        <path class="cls-2" d="M30.28,41.58h-2.11c-.48,0-.87-.39-.87-.87s.39-.87,.87-.87h2.11c.16,0,.29-.13,.29-.29v-6.07c0-2.25,1.83-4.08,4.08-4.08,.48,0,.87,.39,.87,.87s-.39,.87-.87,.87c-1.29,0-2.33,1.05-2.33,2.33v6.07c0,1.12-.91,2.03-2.03,2.03"/>
        <path class="cls-2" d="M27.08,46.55c-4.47,0-8.24-3.72-8.24-8.13,0-.48,.39-.87,.87-.87s.87,.39,.87,.87c0,3.46,2.97,6.38,6.49,6.38,.48,0,.87,.39,.87,.87s-.39,.87-.87,.87"/>
        <path class="cls-2" d="M41.01,24.3h-2.64v-3.18c0-3.2-2.6-5.8-5.8-5.8-.58,0-1.14,.08-1.68,.25-.53-.16-1.1-.25-1.68-.25-3.2,0-5.8,2.6-5.8,5.8v3.18h-2.53c-1.13,0-2.05,.91-2.05,2.03v3c0,.48,.39,.87,.87,.87s.87-.39,.87-.87v-3c0-.16,.14-.28,.3-.28h16.61c.17,0,.3,.13,.3,.28v14.62c0,.48,.39,.87,.87,.87s.87-.39,.87-.87v-14.62c0-.1,0-.19-.02-.28h1.49c.17,0,.3,.13,.3,.28v18.21c0,.16-.14,.28-.3,.28h-7.13c-.48,0-.87,.39-.87,.87s.39,.87,.87,.87h7.13c1.13,0,2.05-.91,2.05-2.03V26.33c0-1.12-.92-2.03-2.05-2.03m-4.38-3.18v3.18h-1.62v-3.18c0-1.53-.6-2.92-1.57-3.96,1.82,.4,3.19,2.02,3.19,3.96m-11.47,0c0-2.23,1.82-4.05,4.05-4.05s4.05,1.82,4.05,4.05v3.18h-4.74v-3.18c0-.62,.13-1.21,.4-1.76,.21-.43,.03-.96-.41-1.16-.43-.21-.96-.03-1.16,.41-.38,.79-.57,1.63-.57,2.51v3.18h-1.62v-3.18Z"/>
      </g>
    </g>
  </g>
</svg>