<?xml version="1.0" encoding="UTF-8"?>
<svg id="Capa_1" data-name="Capa 1" xmlns="http://www.w3.org/2000/svg" viewBox="0 0 1926 1403.75">
  <defs>
    <style>
      .cls-1 {
        letter-spacing: -.07em;
      }

      .cls-2 {
        letter-spacing: -.07em;
      }

      .cls-3 {
        letter-spacing: -.03em;
      }

      .cls-4 {
        letter-spacing: -.02em;
      }

      .cls-5 {
        letter-spacing: -.04em;
      }

      .cls-6 {
        letter-spacing: -.02em;
      }

      .cls-7 {
        letter-spacing: -.02em;
      }

      .cls-8 {
        fill: #25b4bd;
      }

      .cls-9 {
        letter-spacing: -.01em;
      }

      .cls-10 {
        letter-spacing: -.05em;
      }

      .cls-11, .cls-12 {
        fill: #fff;
      }

      .cls-13 {
        letter-spacing: -.02em;
      }

      .cls-14 {
        letter-spacing: -.02em;
      }

      .cls-15 {
        letter-spacing: -.05em;
      }

      .cls-16, .cls-17, .cls-18, .cls-19, .cls-20, .cls-21, .cls-22, .cls-23, .cls-24, .cls-25, .cls-26, .cls-27, .cls-28, .cls-29, .cls-30, .cls-31, .cls-32, .cls-33, .cls-34, .cls-35, .cls-36, .cls-37, .cls-38, .cls-39, .cls-40, .cls-41, .cls-42, .cls-43, .cls-44, .cls-45, .cls-46, .cls-47 {
        fill: none;
      }

      .cls-16, .cls-17, .cls-18, .cls-19, .cls-20, .cls-21, .cls-23, .cls-24, .cls-25, .cls-26, .cls-27, .cls-29, .cls-30, .cls-31, .cls-34, .cls-35, .cls-36, .cls-37, .cls-38, .cls-40, .cls-41, .cls-42, .cls-43, .cls-44, .cls-45, .cls-46, .cls-47 {
        stroke-miterlimit: 10;
      }

      .cls-16, .cls-18, .cls-24, .cls-34, .cls-37, .cls-38, .cls-41, .cls-42 {
        stroke: #3c3c3b;
      }

      .cls-16, .cls-40, .cls-43 {
        stroke-width: 54px;
      }

      .cls-48 {
        letter-spacing: -.03em;
      }

      .cls-17, .cls-18, .cls-19, .cls-21, .cls-23, .cls-24, .cls-26, .cls-27, .cls-29, .cls-31, .cls-34, .cls-35, .cls-36, .cls-37, .cls-38, .cls-42, .cls-44, .cls-46, .cls-47 {
        stroke-width: 16.75px;
      }

      .cls-17, .cls-21, .cls-29, .cls-36, .cls-43, .cls-46, .cls-47 {
        stroke: #279d2e;
      }

      .cls-17, .cls-35, .cls-38 {
        opacity: .65;
      }

      .cls-49 {
        letter-spacing: -.03em;
      }

      .cls-18, .cls-31, .cls-47 {
        opacity: .8;
      }

      .cls-50 {
        letter-spacing: -.05em;
      }

      .cls-51 {
        letter-spacing: 0em;
      }

      .cls-52 {
        letter-spacing: -.01em;
      }

      .cls-19, .cls-23, .cls-26, .cls-31, .cls-35, .cls-40, .cls-44 {
        stroke: #25b4bd;
      }

      .cls-19, .cls-36, .cls-42 {
        opacity: .5;
      }

      .cls-53 {
        letter-spacing: -.03em;
      }

      .cls-54 {
        letter-spacing: -.09em;
      }

      .cls-55 {
        letter-spacing: -.03em;
      }

      .cls-56 {
        letter-spacing: -.05em;
      }

      .cls-57 {
        letter-spacing: -.04em;
      }

      .cls-58 {
        letter-spacing: -.03em;
      }

      .cls-59 {
        letter-spacing: -.04em;
      }

      .cls-60 {
        letter-spacing: -.04em;
      }

      .cls-20, .cls-22, .cls-25, .cls-27, .cls-28, .cls-30, .cls-32, .cls-33, .cls-39 {
        stroke: #fff;
      }

      .cls-61 {
        letter-spacing: -.01em;
      }

      .cls-62 {
        letter-spacing: 0em;
      }

      .cls-63 {
        letter-spacing: -.03em;
      }

      .cls-64 {
        letter-spacing: -.09em;
      }

      .cls-65, .cls-66 {
        font-family: Ansage-Light, Ansage;
      }

      .cls-67 {
        letter-spacing: -.05em;
      }

      .cls-68 {
        letter-spacing: -.04em;
      }

      .cls-69 {
        letter-spacing: -.04em;
      }

      .cls-70 {
        letter-spacing: -.02em;
      }

      .cls-71 {
        letter-spacing: 0em;
      }

      .cls-21, .cls-24, .cls-44 {
        opacity: .25;
      }

      .cls-72 {
        letter-spacing: -.04em;
      }

      .cls-73 {
        letter-spacing: -.02em;
      }

      .cls-74 {
        letter-spacing: -.04em;
      }

      .cls-75 {
        letter-spacing: -.05em;
      }

      .cls-76 {
        letter-spacing: -.04em;
      }

      .cls-77, .cls-78, .cls-79 {
        fill: #71706f;
      }

      .cls-80 {
        letter-spacing: -.02em;
      }

      .cls-81 {
        fill: #279d2e;
      }

      .cls-82 {
        letter-spacing: -.06em;
      }

      .cls-83 {
        letter-spacing: -.02em;
      }

      .cls-84 {
        letter-spacing: -.04em;
      }

      .cls-66 {
        font-size: 26px;
      }

      .cls-85 {
        letter-spacing: -.04em;
      }

      .cls-86 {
        letter-spacing: -.02em;
      }

      .cls-87 {
        letter-spacing: -.04em;
      }

      .cls-88 {
        letter-spacing: 0em;
      }

      .cls-89 {
        letter-spacing: -.05em;
      }

      .cls-90, .cls-78 {
        font-family: Ansage-Medium, Ansage;
      }

      .cls-91 {
        letter-spacing: -.04em;
      }

      .cls-92 {
        letter-spacing: -.02em;
      }

      .cls-93 {
        letter-spacing: -.04em;
      }

      .cls-22 {
        stroke-linecap: square;
      }

      .cls-22, .cls-28, .cls-32, .cls-33, .cls-39 {
        stroke-linejoin: round;
      }

      .cls-22, .cls-28, .cls-39 {
        stroke-width: 1.07px;
      }

      .cls-94 {
        letter-spacing: -.03em;
      }

      .cls-95 {
        letter-spacing: -.02em;
      }

      .cls-96 {
        letter-spacing: -.06em;
      }

      .cls-97 {
        letter-spacing: -.07em;
      }

      .cls-98 {
        letter-spacing: -.02em;
      }

      .cls-99 {
        letter-spacing: 0em;
      }

      .cls-100 {
        letter-spacing: -.04em;
      }

      .cls-101 {
        letter-spacing: -.01em;
      }

      .cls-102 {
        letter-spacing: 0em;
      }

      .cls-103 {
        letter-spacing: -.06em;
      }

      .cls-104 {
        letter-spacing: -.05em;
      }

      .cls-105 {
        letter-spacing: -.02em;
      }

      .cls-106 {
        letter-spacing: -.04em;
      }

      .cls-107 {
        letter-spacing: -.05em;
      }

      .cls-108 {
        letter-spacing: -.03em;
      }

      .cls-109 {
        letter-spacing: -.05em;
      }

      .cls-110 {
        letter-spacing: -.01em;
      }

      .cls-111 {
        letter-spacing: -.04em;
      }

      .cls-112 {
        letter-spacing: -.05em;
      }

      .cls-113 {
        letter-spacing: -.06em;
      }

      .cls-114 {
        letter-spacing: -.02em;
      }

      .cls-115 {
        letter-spacing: -.03em;
      }

      .cls-116 {
        letter-spacing: -.04em;
      }

      .cls-117 {
        letter-spacing: -.03em;
      }

      .cls-118 {
        letter-spacing: -.05em;
      }

      .cls-119 {
        letter-spacing: -.04em;
      }

      .cls-120 {
        letter-spacing: -.02em;
      }

      .cls-25, .cls-28, .cls-32, .cls-33 {
        stroke-linecap: round;
      }

      .cls-25, .cls-30, .cls-32 {
        stroke-width: 1.04px;
      }

      .cls-121 {
        letter-spacing: -.04em;
      }

      .cls-26, .cls-34, .cls-46 {
        opacity: .9;
      }

      .cls-12 {
        font-size: 30px;
      }

      .cls-122 {
        letter-spacing: -.04em;
      }

      .cls-123 {
        letter-spacing: -.03em;
      }

      .cls-124 {
        letter-spacing: 0em;
      }

      .cls-125 {
        letter-spacing: -.04em;
      }

      .cls-27 {
        opacity: .4;
      }

      .cls-126 {
        letter-spacing: -.02em;
      }

      .cls-127 {
        letter-spacing: -.02em;
      }

      .cls-128 {
        letter-spacing: -.02em;
      }

      .cls-129 {
        letter-spacing: -.03em;
      }

      .cls-130 {
        letter-spacing: -.05em;
      }

      .cls-131 {
        letter-spacing: -.04em;
      }

      .cls-132 {
        letter-spacing: -.03em;
      }

      .cls-133 {
        letter-spacing: -.03em;
      }

      .cls-134 {
        letter-spacing: 0em;
      }

      .cls-135 {
        letter-spacing: -.05em;
      }

      .cls-136 {
        letter-spacing: 0em;
      }

      .cls-78 {
        font-size: 19px;
      }

      .cls-137 {
        letter-spacing: -.02em;
      }

      .cls-138 {
        letter-spacing: -.05em;
      }

      .cls-139 {
        letter-spacing: -.05em;
      }

      .cls-140 {
        letter-spacing: -.05em;
      }

      .cls-141 {
        letter-spacing: -.06em;
      }

      .cls-142 {
        letter-spacing: -.03em;
      }

      .cls-143 {
        letter-spacing: 0em;
      }

      .cls-144 {
        letter-spacing: -.02em;
      }

      .cls-145 {
        letter-spacing: -.03em;
      }

      .cls-146 {
        letter-spacing: -.05em;
      }

      .cls-147 {
        letter-spacing: -.03em;
      }

      .cls-148 {
        letter-spacing: -.01em;
      }

      .cls-149 {
        letter-spacing: -.04em;
      }

      .cls-150 {
        letter-spacing: -.04em;
      }

      .cls-151 {
        letter-spacing: -.04em;
      }

      .cls-152 {
        letter-spacing: -.03em;
      }

      .cls-153 {
        letter-spacing: -.09em;
      }

      .cls-154 {
        letter-spacing: -.03em;
      }

      .cls-155 {
        font-size: 29px;
      }

      .cls-155, .cls-156, .cls-157, .cls-158, .cls-159 {
        fill: #3c3c3b;
      }

      .cls-155, .cls-160 {
        font-family: Ansage-SemiBold, Ansage;
      }

      .cls-161 {
        letter-spacing: -.02em;
      }

      .cls-162 {
        letter-spacing: -.05em;
      }

      .cls-163 {
        letter-spacing: -.05em;
      }

      .cls-156 {
        font-size: 9.2px;
      }

      .cls-164 {
        letter-spacing: -.02em;
      }

      .cls-165 {
        letter-spacing: -.02em;
      }

      .cls-166 {
        letter-spacing: -.01em;
      }

      .cls-167 {
        letter-spacing: -.03em;
      }

      .cls-168 {
        letter-spacing: -.04em;
      }

      .cls-169 {
        letter-spacing: -.06em;
      }

      .cls-170 {
        letter-spacing: -.07em;
      }

      .cls-171 {
        letter-spacing: -.03em;
      }

      .cls-33 {
        stroke-width: 1.02px;
      }

      .cls-172 {
        letter-spacing: -.06em;
      }

      .cls-173 {
        fill: #706f6f;
      }

      .cls-174 {
        letter-spacing: -.01em;
      }

      .cls-175 {
        letter-spacing: 0em;
      }

      .cls-176 {
        letter-spacing: -.04em;
      }

      .cls-177 {
        letter-spacing: -.01em;
      }

      .cls-178 {
        letter-spacing: -.01em;
      }

      .cls-179 {
        letter-spacing: -.02em;
      }

      .cls-180 {
        letter-spacing: -.02em;
      }

      .cls-181 {
        letter-spacing: -.04em;
      }

      .cls-182 {
        letter-spacing: -.02em;
      }

      .cls-183 {
        letter-spacing: -.03em;
      }

      .cls-184 {
        letter-spacing: -.06em;
      }

      .cls-185 {
        letter-spacing: -.03em;
      }

      .cls-186 {
        fill: #dadada;
      }

      .cls-186, .cls-158, .cls-45 {
        opacity: .3;
      }

      .cls-187 {
        letter-spacing: -.03em;
      }

      .cls-188 {
        letter-spacing: -.02em;
      }

      .cls-189 {
        letter-spacing: -.03em;
      }

      .cls-190 {
        letter-spacing: -.02em;
      }

      .cls-191 {
        letter-spacing: 0em;
      }

      .cls-192 {
        letter-spacing: 0em;
      }

      .cls-193 {
        letter-spacing: -.04em;
      }

      .cls-194 {
        letter-spacing: -.02em;
      }

      .cls-195 {
        letter-spacing: 0em;
      }

      .cls-196 {
        letter-spacing: -.09em;
      }

      .cls-197 {
        letter-spacing: -.1em;
      }

      .cls-198 {
        letter-spacing: -.03em;
      }

      .cls-199 {
        letter-spacing: -.01em;
      }

      .cls-200 {
        letter-spacing: -.03em;
      }

      .cls-201 {
        letter-spacing: -.04em;
      }

      .cls-202 {
        letter-spacing: -.06em;
      }

      .cls-203 {
        letter-spacing: -.03em;
      }

      .cls-204 {
        letter-spacing: -.04em;
      }

      .cls-205 {
        letter-spacing: -.03em;
      }

      .cls-206 {
        letter-spacing: -.06em;
      }

      .cls-207 {
        letter-spacing: -.03em;
      }

      .cls-208 {
        letter-spacing: -.01em;
      }

      .cls-209 {
        letter-spacing: -.09em;
      }

      .cls-210 {
        letter-spacing: -.03em;
      }

      .cls-159 {
        font-size: 8.84px;
      }

      .cls-211 {
        letter-spacing: -.09em;
      }

      .cls-212 {
        letter-spacing: -.07em;
      }

      .cls-213 {
        letter-spacing: -.05em;
      }

      .cls-214 {
        letter-spacing: -.02em;
      }

      .cls-215 {
        letter-spacing: -.07em;
      }

      .cls-216 {
        letter-spacing: -.01em;
      }

      .cls-217 {
        letter-spacing: 0em;
      }

      .cls-218 {
        letter-spacing: -.01em;
      }

      .cls-219 {
        letter-spacing: -.04em;
      }

      .cls-79 {
        font-size: 21px;
      }

      .cls-220 {
        letter-spacing: -.02em;
      }

      .cls-221 {
        letter-spacing: -.04em;
      }

      .cls-222 {
        letter-spacing: -.04em;
      }

      .cls-223 {
        letter-spacing: -.03em;
      }

      .cls-224 {
        letter-spacing: -.05em;
      }

      .cls-225 {
        letter-spacing: -.03em;
      }

      .cls-226 {
        letter-spacing: -.02em;
      }

      .cls-227 {
        letter-spacing: -.04em;
      }

      .cls-228 {
        letter-spacing: -.02em;
      }

      .cls-45 {
        stroke: #1d1d1b;
        stroke-width: 2px;
      }

      .cls-229 {
        letter-spacing: -.05em;
      }

      .cls-230 {
        letter-spacing: -.04em;
      }

      .cls-231 {
        letter-spacing: -.04em;
      }

      .cls-232 {
        letter-spacing: -.02em;
      }
    </style>
  </defs>
  <g>
    <g>
      <g>
        <g>
          <path class="cls-81" d="M386.88,12.17c-11.13,1.23-20.16,10.17-21.5,21.29-.82,6.79,1.16,13.1,4.92,17.97l18.32,24.76c.52,.7,1.57,.7,2.1,0l18.32-24.76c3.2-4.13,5.1-9.32,5.1-14.94,0-14.43-12.49-25.94-27.25-24.31Z"/>
          <g>
            <g>
              <path class="cls-39" d="M391.77,25.84c0-1.42-1.15-2.57-2.57-2.57-1,0-1.86,.58-2.28,1.41-.85-.48-1.82-.76-2.87-.76s-2.02,.28-2.87,.76c-.43-.83-1.28-1.41-2.28-1.41-1.42,0-2.57,1.15-2.57,2.57,0,1.26,.9,2.3,2.09,2.53-.1,.43-.16,.88-.16,1.34,0,3.2,2.59,5.79,5.79,5.79s5.79-2.59,5.79-5.79c0-.46-.06-.91-.16-1.34,1.19-.23,2.09-1.27,2.09-2.53Z"/>
              <line class="cls-28" x1="384.05" y1="30.99" x2="384.05" y2="32.04"/>
              <polyline class="cls-28" points="382.76 30.99 384.05 30.99 385.34 30.99"/>
              <line class="cls-39" x1="381.48" y1="28.41" x2="381.48" y2="29.7"/>
              <line class="cls-39" x1="386.62" y1="28.41" x2="386.62" y2="29.7"/>
              <path class="cls-39" d="M380.19,39.36c-.58,.52-.9,1.22-1.08,1.84"/>
              <path class="cls-39" d="M387.91,39.36c.59,.52,.91,1.24,1.08,1.87"/>
              <path class="cls-39" d="M389.78,35.35c2.41,1.54,4.06,3.81,4.57,5.15,.64,1.72,.74,3.41-1.83,3.98"/>
              <path class="cls-39" d="M378.55,35.24c-2.57,1.54-4.21,3.86-4.73,5.26-.64,1.72-.8,3.39,1.78,3.97"/>
              <ellipse class="cls-39" cx="389.2" cy="47.08" rx="3.86" ry="4.51"/>
              <ellipse class="cls-39" cx="378.9" cy="47.08" rx="3.86" ry="4.51"/>
            </g>
            <g>
              <line class="cls-39" x1="400.49" y1="45.43" x2="405.58" y2="45.43"/>
              <polygon class="cls-22" points="405.58 47.75 402.97 50.61 400.35 47.75 400.35 23.94 405.58 23.94 405.58 47.75"/>
            </g>
            <line class="cls-39" x1="403.09" y1="25.6" x2="403.09" y2="43.72"/>
          </g>
        </g>
        <text class="cls-159" transform="translate(358.44 94.98)"><tspan x="0" y="0">JUGU</tspan><tspan class="cls-88" x="22.14" y="0">E</tspan><tspan x="27.65" y="0">TERÍA Y</tspan><tspan x="10.79" y="10.61">LIBRERÍA</tspan></text>
      </g>
      <g>
        <text class="cls-159" transform="translate(201.57 93.26)"><tspan x="0" y="0">HOGAR Y D</tspan><tspan class="cls-101" x="49.27" y="0">E</tspan><tspan class="cls-83" x="54.68" y="0">C</tspan><tspan x="60" y="0">O</tspan></text>
        <g>
          <path class="cls-81" d="M231.84,12.17c-11.13,1.23-20.16,10.17-21.5,21.29-.82,6.79,1.16,13.1,4.92,17.97l18.32,24.76c.52,.7,1.57,.7,2.1,0l18.32-24.76c3.2-4.13,5.1-9.32,5.1-14.94,0-14.43-12.49-25.94-27.25-24.31Z"/>
          <g>
            <polyline class="cls-28" points="230.09 52.17 232.2 52.17 239.49 52.17 245.74 52.17 245.74 39.15"/>
            <polyline class="cls-28" points="225.95 39.15 225.95 52.17 227.72 52.17"/>
            <polygon class="cls-20" points="249.9 38.11 247.3 40.72 245.74 39.15 235.84 29.26 225.95 39.15 224.39 40.72 221.79 38.11 225.95 33.95 230.64 29.26 235.84 24.06 249.9 38.11"/>
            <rect class="cls-20" x="232.2" y="42.8" width="7.29" height="9.37"/>
            <polygon class="cls-20" points="230.64 25.62 230.64 29.26 225.95 33.95 225.95 25.62 230.64 25.62"/>
            <polyline class="cls-28" points="242.48 30.69 249.9 38.11 247.3 40.72 245.74 39.15 240.14 33.56"/>
            <polyline class="cls-28" points="238.31 31.73 235.84 29.26 225.95 39.15 224.39 40.72 221.79 38.11 225.95 33.95 230.64 29.26 235.84 24.06 242.48 30.69"/>
            <polyline class="cls-28" points="225.95 31.67 225.95 25.62 230.64 25.62 230.64 26.99"/>
            <polyline class="cls-28" points="239.49 52.17 239.49 42.8 232.2 42.8 232.2 52.17"/>
          </g>
        </g>
      </g>
      <g>
        <text class="cls-159" transform="translate(277.4 93.24)"><tspan x="0" y="0">INDUMEN</tspan><tspan class="cls-153" x="43.36" y="0">T</tspan><tspan x="48.28" y="0">ARIA</tspan><tspan x="3.31" y="10.61">Y </tspan><tspan class="cls-83" x="11.22" y="10.61">AC</tspan><tspan x="22.85" y="10.61">CESORIOS</tspan></text>
        <g>
          <path class="cls-81" d="M310.94,12.17c-11.13,1.23-20.16,10.17-21.5,21.29-.82,6.79,1.16,13.1,4.92,17.97l18.32,24.76c.52,.7,1.57,.7,2.1,0l18.32-24.76c3.2-4.13,5.1-9.32,5.1-14.94,0-14.43-12.49-25.94-27.25-24.31Z"/>
          <g>
            <line class="cls-28" x1="305.55" y1="38.21" x2="305.55" y2="52.4"/>
            <path class="cls-28" d="M308.93,31.04h-3.1c-1.91,0-3.53,2.19-3.53,2.19l-5.33,6.04,5.05,5.05,3.54-3.54"/>
            <path class="cls-28" d="M318.53,31.04s-1.13,4.44-4.8,4.44-4.8-4.44-4.8-4.44"/>
            <path class="cls-28" d="M321.91,40.77l3.54,3.54,5.05-5.05-5.33-6.04s-1.62-2.19-3.53-2.19h-3.1"/>
            <line class="cls-28" x1="321.91" y1="52.06" x2="321.91" y2="38.21"/>
            <path class="cls-39" d="M311.19,25.5c0-1.4,1.14-2.54,2.54-2.54s2.55,1.14,2.55,2.54c0,1.19-.82,2.19-1.93,2.47-.37,.11-.62,.38-.62,.74v2.33h1.55"/>
            <line class="cls-39" x1="313.73" y1="31.04" x2="308.93" y2="31.04"/>
          </g>
        </g>
      </g>
      <g>
        <text class="cls-159" transform="translate(503.8 95.52)"><tspan x="0" y="0">SA</tspan><tspan class="cls-194" x="11.55" y="0">L</tspan><tspan x="16.48" y="0">UD Y CUI</tspan><tspan class="cls-232" x="54.56" y="0">D</tspan><tspan x="61.05" y="0">ADO</tspan><tspan x="16.67" y="10.61">PE</tspan><tspan class="cls-148" x="28.04" y="10.61">R</tspan><tspan x="34.01" y="10.61">SONAL</tspan></text>
        <g>
          <path class="cls-81" d="M541.99,16.45c-11.13,1.23-20.16,10.17-21.5,21.29-.82,6.79,1.16,13.1,4.92,17.97l18.32,24.76c.52,.7,1.57,.7,2.1,0l18.32-24.76c3.2-4.13,5.1-9.32,5.1-14.94,0-14.43-12.49-25.94-27.25-24.31Z"/>
          <g>
            <g>
              <rect class="cls-39" x="550.28" y="31.83" width="1.86" height="2.15"/>
              <path class="cls-39" d="M552.44,31.83h-2.15s-1.18,.05-2.33-.3c-.79-.24-1.47-.62-1.47-1.5h5.95v1.8Z"/>
              <path class="cls-39" d="M549.83,33.98h2.76c.4,0,.72,.32,.72,.72v2.97h-4.2v-2.97c0-.4,.32-.72,.72-.72Z"/>
              <path class="cls-39" d="M549.96,57.45h-1.97c-.54,0-.97-.43-.97-.97v-16.08c0-1.5,1.22-2.72,2.72-2.72h2.93c1.5,0,2.72,1.22,2.72,2.72v16.08c0,.54-.43,.97-.97,.97h-1.69"/>
            </g>
            <g>
              <path class="cls-39" d="M535.41,54.92h5.47v1.81c0,.41-.33,.74-.74,.74h-3.98c-.41,0-.74-.33-.74-.74v-1.81h0Z"/>
              <path class="cls-39" d="M537.96,30.45h5.81l-1.49,22.92c-.06,.87-.91,1.55-1.92,1.55h-4.43c-1.02,0-1.87-.68-1.92-1.55l-1.49-22.92h2.67"/>
              <polygon class="cls-39" points="542.49 50.25 533.8 50.25 532.71 33.44 543.55 33.44 542.49 50.25"/>
            </g>
          </g>
        </g>
      </g>
      <g>
        <text class="cls-159" transform="translate(132.64 93.26)"><tspan x="0" y="0">ALIMEN</tspan><tspan class="cls-131" x="34.82" y="0">T</tspan><tspan x="40.14" y="0">OS</tspan></text>
        <g>
          <path class="cls-81" d="M154.91,12.17c-11.13,1.23-20.16,10.17-21.5,21.29-.82,6.79,1.16,13.1,4.92,17.97l18.32,24.76c.52,.7,1.57,.7,2.1,0l18.32-24.76c3.2-4.13,5.1-9.32,5.1-14.94,0-14.43-12.49-25.94-27.25-24.31Z"/>
          <g>
            <line class="cls-25" x1="160.7" y1="46.01" x2="166.03" y2="40.68"/>
            <line class="cls-25" x1="164.18" y1="46.01" x2="166.4" y2="43.81"/>
            <g>
              <line class="cls-30" x1="145.28" y1="50.4" x2="145.28" y2="37.23"/>
              <line class="cls-30" x1="169.51" y1="37.23" x2="169.51" y2="50.4"/>
              <line class="cls-30" x1="152.91" y1="37.23" x2="152.91" y2="50.36"/>
            </g>
            <line class="cls-25" x1="150.28" y1="41.49" x2="150.28" y2="43.26"/>
            <g>
              <path class="cls-32" d="M154.59,32.52c0,1.51-1.23,2.74-2.74,2.74s-2.71-1.23-2.71-2.74"/>
              <path class="cls-32" d="M160.08,32.52c0,1.51-1.23,2.74-2.74,2.74s-2.74-1.23-2.74-2.74"/>
              <path class="cls-32" d="M165.59,32.52c0,1.51-1.26,2.74-2.77,2.74s-2.74-1.23-2.74-2.74"/>
            </g>
            <path class="cls-32" d="M165.59,32.52c0,1.51,1.26,2.74,2.77,2.74s2.74-1.23,2.74-2.74v-2.38l-3.34-5.88h-20.67l-3.41,5.88v2.38c0,1.51,1.23,2.74,2.74,2.74s2.71-1.23,2.71-2.74"/>
            <g>
              <line class="cls-32" x1="154.98" y1="27.59" x2="155.18" y2="24.3"/>
              <line class="cls-32" x1="150.19" y1="27.59" x2="150.96" y2="24.3"/>
              <line class="cls-32" x1="159.69" y1="27.59" x2="159.48" y2="24.3"/>
              <line class="cls-32" x1="164.48" y1="27.59" x2="163.7" y2="24.3"/>
            </g>
            <line class="cls-32" x1="142.86" y1="50.39" x2="171.92" y2="50.39"/>
          </g>
        </g>
      </g>
      <g>
        <text class="cls-159" transform="translate(606.08 95.52)"><tspan class="cls-50" x="0" y="0">V</tspan><tspan x="5.91" y="0">ARIOS</tspan></text>
        <g>
          <path class="cls-81" d="M618.85,16.45c-11.13,1.23-20.16,10.17-21.5,21.29-.82,6.79,1.16,13.1,4.92,17.97l18.32,24.76c.52,.7,1.57,.7,2.1,0l18.32-24.76c3.2-4.13,5.1-9.32,5.1-14.94,0-14.43-12.49-25.94-27.25-24.31Z"/>
          <g>
            <path class="cls-33" d="M626,39.68h1.35c.95,0,1.18,.7,1.02,1.56,0,0-.38,4.38-.51,4.81-.13,.43-.38,1.07-1.02,1.07h-5.12c-1.4,0-1.48-1.35-2.48-1.35h-1.35"/>
            <path class="cls-33" d="M621.2,42.72c1.32,0,2.26-.88,2.5-1.95,.09-.4,.2-.79,.39-1.15,.12-.22,.23-.45,.27-.56,.06-.19,.3-.57,.3-1.46,0-.9-.11-1.33-.64-1.79-.51-.43-1.28-.24-1.28,.25v.51c0,1.08-.8,1.37-1.61,2.17,0,0-.87,.95-1.89,.95h-1.35"/>
            <rect class="cls-33" x="614.5" y="38.33" width="3.38" height="8.8"/>
            <polygon class="cls-33" points="627.3 54.8 623.85 52.94 621.58 56.12 619.19 53.02 615.81 55 614.89 51.2 611 51.64 611.7 47.79 607.97 46.6 610.18 43.37 607.25 40.77 610.58 38.72 608.96 35.15 612.84 34.63 612.82 30.72 616.57 31.82 618.14 28.23 621.12 30.77 624.01 28.13 625.7 31.66 629.42 30.42 629.53 34.33 633.43 34.71 631.94 38.33 635.34 40.27 632.51 42.97 634.83 46.12 631.15 47.44 631.99 51.26 628.09 50.96 627.3 54.8"/>
          </g>
        </g>
      </g>
      <g>
        <text class="cls-159" transform="translate(981.03 100.96)"><tspan x="0" y="0">CUEN</tspan><tspan class="cls-54" x="24.45" y="0">T</tspan><tspan x="29.38" y="0">A DNI</tspan><tspan class="cls-194" x="1.08" y="10.61">C</tspan><tspan x="6.41" y="10.61">OME</tspan><tspan class="cls-94" x="27.17" y="10.61">R</tspan><tspan x="32.95" y="10.61">CIOS</tspan></text>
        <g>
          <path class="cls-81" d="M1005.47,14.82c-11.13,1.23-20.16,10.17-21.5,21.29-.82,6.79,1.16,13.1,4.92,17.97l18.32,24.76c.52,.7,1.57,.7,2.1,0l18.32-24.76c3.2-4.13,5.1-9.32,5.1-14.94,0-14.43-12.49-25.94-27.25-24.31Z"/>
          <g>
            <path class="cls-11" d="M999.63,41.67c-.15,0-.3-.04-.44-.12-.39-.24-.52-.76-.28-1.15,.72-1.17,1.97-1.87,3.34-1.87,.46,0,.84,.38,.84,.84s-.38,.84-.84,.84c-.79,0-1.5,.4-1.91,1.07-.16,.26-.43,.4-.72,.4"/>
            <path class="cls-11" d="M1000.97,42.49c-.16,0-.29-.14-.26-.3,.14-.77,.82-1.35,1.63-1.35s1.49,.58,1.63,1.35c.03,.16-.1,.3-.26,.3h-2.74Z"/>
            <path class="cls-11" d="M1009.94,42.49c-.16,0-.29-.14-.26-.3,.14-.77,.82-1.35,1.63-1.35s1.49,.58,1.63,1.35c.03,.16-.1,.3-.26,.3h-2.74Z"/>
            <path class="cls-11" d="M1007.03,50.22h-2.03c-.46,0-.84-.38-.84-.84s.37-.84,.84-.84h2.03c.15,0,.28-.12,.28-.28v-5.83c0-2.16,1.76-3.92,3.92-3.92,.46,0,.84,.38,.84,.84s-.38,.84-.84,.84c-1.23,0-2.24,1-2.24,2.24v5.83c0,1.08-.88,1.95-1.95,1.95"/>
            <path class="cls-11" d="M1003.95,54.99c-4.29,0-7.91-3.57-7.91-7.8,0-.46,.38-.84,.84-.84s.84,.38,.84,.84c0,3.32,2.85,6.13,6.23,6.13,.46,0,.84,.38,.84,.84s-.37,.84-.84,.84"/>
            <path class="cls-11" d="M1017.33,33.62h-2.53v-3.06c0-3.07-2.5-5.57-5.57-5.57-.55,0-1.1,.08-1.62,.24-.51-.15-1.05-.24-1.61-.24-3.07,0-5.57,2.5-5.57,5.57v3.06h-2.43c-1.08,0-1.96,.87-1.96,1.95v2.88c0,.46,.38,.84,.84,.84s.84-.37,.84-.84v-2.88c0-.15,.13-.27,.29-.27h15.95c.16,0,.29,.12,.29,.27v14.04c0,.46,.37,.84,.84,.84s.84-.37,.84-.84v-14.04c0-.09,0-.18-.02-.27h1.43c.16,0,.29,.12,.29,.27v17.48c0,.15-.13,.27-.29,.27h-6.84c-.46,0-.84,.38-.84,.84s.38,.84,.84,.84h6.84c1.08,0,1.96-.87,1.96-1.95v-17.48c0-1.07-.88-1.95-1.96-1.95m-4.21-3.06v3.06h-1.55v-3.06c0-1.47-.57-2.81-1.51-3.8,1.75,.38,3.06,1.94,3.06,3.8m-11.01,0c0-2.15,1.75-3.89,3.89-3.89s3.89,1.75,3.89,3.89v3.06h-4.55v-3.06c0-.59,.13-1.16,.38-1.69,.2-.42,.03-.92-.39-1.12-.42-.2-.92-.03-1.12,.39-.36,.76-.55,1.57-.55,2.41v3.06h-1.55v-3.06Z"/>
          </g>
        </g>
      </g>
      <g>
        <text class="cls-159" transform="translate(54.95 93.26)"><tspan x="0" y="0">EL</tspan><tspan class="cls-101" x="10.62" y="0">E</tspan><tspan class="cls-195" x="16.04" y="0">C</tspan><tspan x="21.58" y="0">T</tspan><tspan class="cls-123" x="27.27" y="0">R</tspan><tspan x="33.05" y="0">O Y</tspan><tspan x="-1.48" y="10.61">CE</tspan><tspan class="cls-194" x="9.54" y="10.61">L</tspan><tspan class="cls-192" x="14.47" y="10.61">ULARES</tspan></text>
        <g>
          <path class="cls-81" d="M77.59,12.17c-11.13,1.23-20.16,10.17-21.5,21.29-.82,6.79,1.16,13.1,4.92,17.97l18.32,24.76c.52,.7,1.57,.7,2.1,0l18.32-24.76c3.2-4.13,5.1-9.32,5.1-14.94,0-14.43-12.49-25.94-27.25-24.31Z"/>
          <g>
            <rect class="cls-39" x="82.15" y="32.09" width="11.34" height="20.42" rx="1.7" ry="1.7"/>
            <line class="cls-39" x1="82.15" y1="34.36" x2="93.49" y2="34.36"/>
            <line class="cls-39" x1="86.69" y1="50.8" x2="88.95" y2="50.8"/>
            <line class="cls-39" x1="82.15" y1="49.1" x2="93.49" y2="49.1"/>
            <path class="cls-39" d="M79.88,44h-17.01l.51,1.01c.38,.77,1.17,1.25,2.03,1.25h14.48"/>
            <polyline class="cls-39" points="65.14 41.73 65.14 26.42 88.95 26.42 88.95 29.82"/>
          </g>
        </g>
      </g>
      <g>
        <text class="cls-159" transform="translate(668.95 97.24)"><tspan class="cls-174" x="0" y="0">A</tspan><tspan x="6.36" y="0">U</tspan><tspan class="cls-131" x="12.97" y="0">T</tspan><tspan x="18.3" y="0">OM</tspan><tspan class="cls-4" x="33.51" y="0">Ó</tspan><tspan class="cls-175" x="40.23" y="0">VIL</tspan></text>
        <g>
          <path class="cls-81" d="M696.18,16.45c-11.13,1.23-20.16,10.17-21.5,21.29-.82,6.79,1.16,13.1,4.92,17.97l18.32,24.76c.52,.7,1.57,.7,2.1,0l18.32-24.76c3.2-4.13,5.1-9.32,5.1-14.94,0-14.43-12.49-25.94-27.25-24.31Z"/>
          <g>
            <path class="cls-11" d="M681.16,41.37c.2-.72,.46-1.4,.99-1.96,.72-.75,1.57-1.2,2.62-1.23,.87-.03,1.54-.37,2.01-1.11,.35-.55,.72-1.08,1.08-1.62,.81-1.21,1.93-1.82,3.4-1.81,3.53,.01,7.07,.01,10.6,0,1.03,0,1.92,.32,2.71,.96,1.88,1.51,3.76,3.01,5.64,4.52,.47,.38,.98,.56,1.59,.57,.76,.01,1.55,0,2.28,.18,1.66,.42,2.58,1.65,3.09,3.22,.31,.94,.43,1.92,.17,2.89-.37,1.41-1.29,2.3-2.69,2.68-.2,.06-.28,.14-.34,.33-.81,2.82-4.18,3.75-6.3,1.72-.47-.44-.82-.98-.98-1.62-.06-.23-.15-.32-.4-.32-4.88,0-9.76,0-14.64,0-.29,0-.34,.14-.41,.35-.74,2.36-3.53,3.42-5.6,2.11-.85-.54-1.42-1.3-1.7-2.27-.03-.12-.16-.25-.28-.29-1.51-.48-2.47-1.46-2.8-3.03,0-.03-.04-.06-.06-.09,0-1.39,0-2.79,0-4.18Zm33.23,5.75c.71-.21,1.23-.67,1.42-1.33,.31-1.08,.07-2.1-.44-3.07-.43-.82-1.09-1.34-2-1.47-.48-.07-.97-.03-1.45-.03-.99,0-1.87-.29-2.65-.91-1.86-1.5-3.73-2.98-5.59-4.48-.52-.42-1.07-.67-1.74-.67-3.57,0-7.14,0-10.71,0-.93,0-1.62,.4-2.12,1.18-.36,.57-.75,1.12-1.12,1.68-.5,.75-1.17,1.3-2.06,1.53-.42,.11-.86,.14-1.29,.18-.93,.09-1.87,.98-1.9,1.9-.04,1.23-.04,2.46,0,3.68,.02,.81,.78,1.63,1.54,1.78,.62-1.77,1.81-2.87,3.73-2.86,1.96,.02,3.15,1.17,3.71,3h15.24c.49-1.76,1.76-2.86,3.45-3.01,1.72-.15,2.99,.77,3.99,2.9Zm-26.41,3.14c1.24,0,2.26-1.01,2.26-2.25,0-1.24-1.04-2.26-2.29-2.25-1.23,0-2.26,1.05-2.24,2.27,.02,1.24,1.03,2.24,2.27,2.23Zm22.69,0c1.24,0,2.26-1.01,2.26-2.24,0-1.24-1.04-2.26-2.29-2.25-1.23,0-2.26,1.05-2.24,2.27,.02,1.24,1.03,2.24,2.27,2.23Z"/>
            <path class="cls-11" d="M699.32,39.68c2.24,0,4.43,0,6.61,0,.53,0,.82,.19,.92,.59,.1,.36-.1,.76-.46,.88-.17,.05-.35,.07-.52,.07-2.35,0-4.7,0-7.05,0-.75,0-1.02-.28-1.03-1.03,0-.84,0-1.68,0-2.52,0-.19,.02-.38,.08-.56,.12-.33,.47-.49,.84-.43,.34,.06,.59,.34,.6,.72,.01,.64,0,1.28,0,1.91,0,.11,0,.22,0,.35Z"/>
            <path class="cls-11" d="M690.74,39.68c.17,0,.29,0,.42,0,1.4,0,2.81,0,4.21,0,.51,0,.83,.23,.9,.62,.09,.54-.26,.91-.88,.92-1.23,0-2.45,0-3.68,0-.7,0-1.39,0-2.09,0-.74,0-1.08-.56-.75-1.23,.45-.92,.91-1.83,1.37-2.75,.13-.26,.29-.49,.6-.55,.3-.05,.57,.02,.76,.27,.2,.26,.2,.55,.07,.84-.24,.5-.49,.99-.74,1.49-.06,.11-.11,.23-.19,.39Z"/>
            <path class="cls-11" d="M700.86,42.72c.25,0,.5-.01,.74,0,.41,.02,.71,.33,.74,.72,.02,.37-.26,.74-.67,.77-.57,.03-1.15,.03-1.73,0-.39-.03-.65-.38-.63-.76,.02-.38,.31-.68,.7-.72,.02,0,.05,0,.07,0,.26,0,.52,0,.78,0h0Z"/>
          </g>
        </g>
      </g>
      <g>
        <text class="cls-159" transform="translate(764.72 95.52)"><tspan class="cls-194" x="0" y="0">A</tspan><tspan x="6.31" y="0">G</tspan><tspan class="cls-5" x="12.61" y="0">R</tspan><tspan x="18.39" y="0">O</tspan></text>
        <g>
          <path class="cls-81" d="M773.5,16.45c-11.13,1.23-20.16,10.17-21.5,21.29-.82,6.79,1.16,13.1,4.92,17.97l18.32,24.76c.52,.7,1.57,.7,2.1,0l18.32-24.76c3.2-4.13,5.1-9.32,5.1-14.94,0-14.43-12.49-25.94-27.25-24.31Z"/>
          <g>
            <path class="cls-11" d="M789.67,49.01c-.11,.41-.18,.85-.34,1.24-.72,1.75-2.02,2.81-3.89,3.11-2.7,.43-5.12-1.45-5.59-3.91,0-.04-.03-.09-.05-.15h-3.46c0-.12,0-.22,0-.32-.01-.93,0-1.86-.05-2.78-.07-1.49-.58-2.85-1.42-4.07-1.02-1.48-2.38-2.54-4.09-3.11-2.42-.82-4.75-.56-6.96,.72-.17,.1-.34,.21-.51,.33-.16,.11-.32,.24-.5,.37-.35-.43-.7-.84-1.06-1.28,1.14-.94,2.41-1.58,3.83-1.96v-5.27h-1.63v-1.64h13.2v1.63h-1.35c.67,2.23,1.32,4.42,1.98,6.61h3.63c0-.11,0-.21,0-.31,0-1.28,0-2.55,0-3.83,0-1.26,.93-2.28,2.17-2.45,.09-.01,.18-.01,.29-.02,0,.55,0,1.09,0,1.63-.68,.23-.81,.42-.81,1.14,0,1.27,0,2.53,0,3.84,.17,0,.33,0,.49,0,.68,.03,1.37-.01,2.02,.13,1.4,.3,2.43,1.66,2.44,3.09,0,.93,0,1.86,0,2.78,0,.11,.04,.24,.11,.31,.82,.82,1.34,1.78,1.5,2.93,0,.02,.03,.04,.05,.06v1.16Zm-22.42-12.12c.06,0,.1,0,.14,0,2.18-.12,4.2,.38,6.04,1.56,.06,.04,.13,.07,.2,.07,.79,0,1.58,0,2.41,0-.67-2.22-1.32-4.42-1.98-6.59h-6.82v4.94Zm17.45,8.26c-1.8,0-3.29,1.5-3.3,3.3,0,1.81,1.51,3.32,3.31,3.31,1.8,0,3.29-1.5,3.3-3.3,0-1.81-1.51-3.32-3.31-3.31Zm1.66-1.37c0-.6,0-1.17,0-1.74,0-1.16-.69-1.85-1.85-1.85-2.91,0-5.82,0-8.73,0h-.31c.07,.09,.1,.15,.14,.19,.73,.86,1.31,1.81,1.7,2.87,.07,.2,.18,.25,.38,.25,1.92,0,3.84,0,5.76,0,.97,0,1.95-.09,2.9,.28Zm-8.46,1.39c.04,.83,.08,1.64,.12,2.47,.55,0,1.1,0,1.65,0,.07,0,.16-.12,.19-.2,.22-.53,.42-1.07,.66-1.59,.11-.23,.29-.43,.46-.67h-3.08Z"/>
            <path class="cls-11" d="M768.05,40.19c3.65,0,6.62,2.95,6.63,6.6,0,3.65-2.95,6.62-6.6,6.63-3.65,0-6.62-2.95-6.63-6.6,0-3.65,2.95-6.62,6.6-6.63Zm4.97,6.58c-.07-2.82-2.29-4.93-5-4.91-2.74,.02-4.95,2.29-4.91,4.98,.03,2.74,2.3,4.99,4.99,4.93,2.82-.06,4.91-2.27,4.93-5Z"/>
            <path class="cls-11" d="M785.53,48.47c0,.47-.38,.83-.85,.82-.45,0-.81-.37-.8-.83,0-.47,.38-.83,.85-.82,.45,0,.81,.37,.8,.83Z"/>
            <path class="cls-11" d="M770.54,46.81c0,1.37-1.12,2.48-2.49,2.47-1.37,0-2.48-1.13-2.47-2.5,0-1.36,1.12-2.46,2.48-2.46,1.37,0,2.48,1.12,2.48,2.49Zm-1.66,0c0-.44-.4-.83-.83-.82-.43,0-.81,.38-.81,.81,0,.44,.38,.83,.82,.83,.44,0,.83-.39,.83-.83Z"/>
          </g>
        </g>
      </g>
      <g>
        <text class="cls-159" transform="translate(826.32 97.24)"><tspan x="0" y="0">A</tspan><tspan class="cls-10" x="6.45" y="0">R</tspan><tspan x="12.06" y="0">TESANÍ</tspan><tspan class="cls-92" x="44.29" y="0">A</tspan><tspan x="50.57" y="0">S</tspan></text>
        <g>
          <path class="cls-81" d="M850.82,16.45c-11.13,1.23-20.16,10.17-21.5,21.29-.82,6.79,1.16,13.1,4.92,17.97l18.32,24.76c.52,.7,1.57,.7,2.1,0l18.32-24.76c3.2-4.13,5.1-9.32,5.1-14.94,0-14.43-12.49-25.94-27.25-24.31Z"/>
          <path class="cls-11" d="M847.45,57.81c-.34-.1-.7-.17-1.02-.31-1.06-.45-1.86-1.2-2.25-2.29-1.12-3.13-2.25-6.27-3.28-9.43-.89-2.71,.99-5.62,3.82-6.02,.62-.09,1.27-.01,1.92-.01v-8.39c-.26,0-.51,0-.77,0-.73,0-1.46,0-2.19,0-.69,0-1.03-.34-1.03-1.03,0-.25,0-.49,0-.74,.01-.58,.37-.93,.95-.93,2.71,0,5.43,0,8.14,0,3.44,0,6.87,0,10.31,0,.67,0,1.01,.33,1.01,1.01,0,.25,0,.49,0,.74-.01,.59-.36,.94-.97,.95-.9,0-1.8,0-2.7,0-.1,0-.21,0-.32,0v8.34c.41,0,.82,0,1.22,0,2.22,.03,4.05,1.47,4.6,3.62,.24,.95,.17,1.88-.15,2.79-1.03,2.95-2.06,5.91-3.11,8.86-.55,1.55-1.64,2.48-3.27,2.79-.03,0-.07,.03-.1,.05h-10.82Zm9.57-8.21c0-.46,0-.91,0-1.35,0-.86,.31-1.17,1.16-1.17,1.68,0,3.36,0,5.04,0,.19,0,.29-.04,.35-.23,.11-.36,.25-.72,.37-1.07,.77-2.29-.53-4.63-2.89-5.12-.66-.14-1.36-.06-2.04-.11-.21-.02-.48-.1-.59-.25-.15-.19-.23-.48-.23-.73-.02-2.62,0-5.24,0-7.86,0-.11,0-.22,0-.35-.33,0-.61,0-.89,0-.62,0-1.23,0-1.85,0-.27,0-.45-.19-.45-.42,0-.24,.19-.43,.46-.45,.08,0,.15,0,.23,0,2.06,0,4.12,0,6.18,0,.11,0,.22,0,.34,0v-.95h-18.64v.95c.14,0,.25,0,.36,0,3.09,0,6.19,0,9.28,0,.45,0,.66,.14,.66,.44,0,.3-.2,.44-.66,.44-1.76,0-3.51,0-5.27,0-.11,0-.22,0-.36,0,0,.14,0,.26,0,.37,0,2.63,0,5.26,0,7.89,0,.65-.3,.93-.94,.94-.57,0-1.14,0-1.7,.05-1.95,.22-3.44,2.03-3.35,3.98,.04,.85,.39,1.59,.65,2.37,.02,.06,.14,.11,.22,.11,.38,.01,.76,0,1.14,0,.33,0,.52,.17,.52,.44,0,.27-.2,.43-.53,.43-.33,0-.66,0-1.01,0,.09,.27,.19,.51,.26,.76,.05,.19,.15,.22,.33,.22,.99,0,1.97,0,2.96,0,.5,0,.75,.24,.76,.75,.01,.48,0,.97,0,1.45,0,.1,0,.2,.02,.3h4.63c0-.11,0-.2,0-.29,0-.49,0-.99,0-1.48,0-.46,.27-.72,.73-.72,.43,0,.85,0,1.28,0,.42,0,.69,.26,.71,.69,.01,.35,0,.7,0,1.05,0,.25,0,.5,0,.76h4.64c0-.57,0-1.13,0-1.69,0-.58,.24-.81,.81-.81,.98,0,1.96,0,2.93,0,.09,0,.23-.04,.25-.1,.12-.27,.2-.56,.3-.85h-5.27c0,.12,0,.22,0,.32,0,.48,0,.97,0,1.45-.01,.5-.25,.73-.74,.73-.38,0-.76,0-1.14,0-.6,0-.82-.22-.82-.83,0-.56,0-1.11,0-1.67h-4.67c0,.33,0,.63,0,.93,0,.3,0,.61,0,.91,0,.36-.24,.63-.59,.64-.5,.02-1.01,.01-1.51,0-.3,0-.54-.23-.58-.53-.02-.15-.02-.3-.02-.45,0-.5,0-1,0-1.53-.14,0-.24,0-.34,0-.58,0-1.16,0-1.74,0-.33,0-.52-.16-.52-.44,0-.27,.16-.43,.49-.43,.69,0,1.39-.02,2.08,0,.56,.02,.9,.4,.91,.96,0,.2,0,.4,0,.6,0,.32,0,.64,0,.95h.97c0-.53,0-1.05,0-1.56,0-.55,.33-.94,.88-.94,1.54-.02,3.07-.02,4.61,0,.55,0,.88,.39,.88,.94,0,.52,0,1.04,0,1.57h.97Zm-13.81,.2c0,.05,.01,.1,.03,.14,.57,1.64,1.15,3.28,1.72,4.93,.07,.22,.2,.25,.41,.25,3.52,0,7.04,0,10.56,0,.12,0,.25,0,.37,.02,.2,.03,.32,.16,.34,.37,.02,.21-.07,.38-.27,.44-.11,.04-.24,.04-.36,.04-3.3,0-6.6,0-9.91,0h-.4c.7,.66,1.45,.97,2.32,.97,3.24,0,6.47,0,9.71,0,.54,0,1.06-.12,1.53-.39,.26-.15,.5-.34,.75-.51-.01-.02-.03-.05-.04-.07-.27,0-.55,0-.82,0-.28,0-.57,0-.85,0-.37,0-.59-.29-.47-.59,.1-.23,.29-.28,.51-.28,.65,0,1.29-.03,1.94,.01,.35,.02,.48-.12,.58-.42,.53-1.55,1.07-3.09,1.61-4.63,.03-.09,.06-.17,.09-.27h-2.74s-.03,.05-.03,.06c0,.5,0,1.01,0,1.51,0,.54-.35,.94-.89,.95-1.54,.02-3.07,.02-4.61,0-.53,0-.87-.38-.89-.92-.02-.44,0-.87,0-1.31,0-.1-.01-.2-.02-.3h-.93s-.02,.05-.02,.07c0,.47,0,.95,0,1.42,0,.68-.36,1.03-1.04,1.03-1.43,0-2.87,0-4.3,0-.69,0-1.06-.36-1.06-1.05,0-.49,0-.98,0-1.48h-2.77Z"/>
        </g>
      </g>
      <g>
        <text class="cls-159" transform="translate(891.9 95.52)"><tspan x="0" y="0">HER</tspan><tspan class="cls-50" x="18.38" y="0">R</tspan><tspan x="24.05" y="0">AMIEN</tspan><tspan class="cls-54" x="53.79" y="0">T</tspan><tspan class="cls-137" x="58.71" y="0">A</tspan><tspan x="65" y="0">S Y</tspan><tspan class="cls-194" x="4.42" y="10.61">C</tspan><tspan x="9.74" y="10.61">ON</tspan><tspan class="cls-189" x="23.47" y="10.61">S</tspan><tspan x="28.28" y="10.61">T</tspan><tspan class="cls-182" x="33.97" y="10.61">R</tspan><tspan x="39.84" y="10.61">U</tspan><tspan class="cls-194" x="46.45" y="10.61">C</tspan><tspan x="51.78" y="10.61">CIÓN</tspan></text>
        <g>
          <path class="cls-81" d="M927.72,16.45c-11.13,1.23-20.16,10.17-21.5,21.29-.82,6.79,1.16,13.1,4.92,17.97l18.32,24.76c.52,.7,1.57,.7,2.1,0l18.32-24.76c3.2-4.13,5.1-9.32,5.1-14.94,0-14.43-12.49-25.94-27.25-24.31Z"/>
          <g>
            <path class="cls-11" d="M927.76,41.89c-.59-.58-1.18-1.16-1.78-1.73-.05-.05-.19-.03-.28,0-2.16,.71-4.08,.29-5.76-1.23-1.68-1.53-2.23-4.14-1.34-6.23,.19-.44,.54-.51,.88-.17,.84,.84,1.68,1.69,2.51,2.53,.09,.09,.16,.19,.23,.26,.54-.53,1.05-1.03,1.59-1.56-.06-.06-.13-.14-.2-.21-.88-.88-1.76-1.77-2.64-2.65-.43-.43-.38-.71,.16-.99,3.26-1.72,7.34,.23,8.08,3.86,.21,1.05,.15,2.07-.21,3.08-.03,.09-.03,.24,.03,.3,.57,.58,1.15,1.15,1.75,1.74,.05-.04,.11-.08,.16-.14,1.15-1.15,2.32-2.29,3.44-3.48,.32-.34,.57-.78,.74-1.21,.29-.73,.05-1.37-.52-1.9-.76-.71-1.7-1.09-2.67-1.4-.25-.08-.51-.15-.78-.21-.22-.05-.37-.17-.42-.39-.05-.23,.07-.39,.25-.51,.76-.54,1.6-.9,2.51-1.08,1.38-.27,2.72-.11,3.97,.52,1.89,.95,3.42,2.29,4.31,4.26,.16,.35,.21,.75,.33,1.12,.03,.1,.11,.22,.2,.26,.44,.22,.9,.42,1.35,.63,.94,.44,1.1,1.34,.38,2.07-.57,.58-1.14,1.16-1.73,1.73-.7,.69-1.6,.53-2.02-.35-.23-.47-.43-.96-.65-1.44-.24-.53-.63-.77-1.21-.68-.72,.1-1.36,.38-1.89,.9-1.19,1.16-2.37,2.32-3.61,3.54,.17,.14,.29,.23,.4,.34,3.04,3.06,6.08,6.12,9.13,9.18,1.3,1.3,.58,3.13-.83,3.6-.82,.27-1.55,.06-2.16-.55-1.75-1.76-3.5-3.53-5.26-5.28-1.41-1.4-2.83-2.79-4.28-4.21-.22,.23-.47,.5-.73,.76-.58,.59-1.17,1.17-1.74,1.76-.08,.09-.14,.25-.14,.37,.02,.35-.09,.63-.33,.88-2.27,2.28-4.53,4.56-6.8,6.83-.48,.48-1.05,.48-1.52,.01-.51-.5-1.01-1-1.5-1.51-.47-.48-.46-1.04,.02-1.52,2.25-2.27,4.5-4.53,6.75-6.8,.26-.26,.56-.39,.93-.36,.1,0,.24-.02,.3-.09,.84-.84,1.68-1.68,2.52-2.53,.02-.02,.03-.05,.07-.12Zm-5.86-11.33c.97,.96,1.9,1.86,2.81,2.77,.33,.32,.32,.53,0,.86-.67,.68-1.34,1.35-2.01,2.02-.35,.35-.54,.35-.9,0-.78-.79-1.57-1.58-2.35-2.37-.06-.06-.12-.11-.2-.18-.18,.6-.2,1.19-.12,1.77,.45,3.22,3.76,4.98,6.56,3.7,.29-.13,.5-.08,.72,.14,.59,.61,1.19,1.2,1.78,1.8,.06,.06,.13,.13,.2,.19-.01-.03-.03-.06-.04-.08,.56-.55,1.12-1.09,1.71-1.67-.63-.62-1.27-1.24-1.91-1.88-.34-.33-.35-.41-.17-.83,.91-2.15,.18-4.58-1.77-5.83-1.34-.86-2.76-.99-4.33-.4Zm10.39,11.34c-.51,.5-1.07,1.06-1.67,1.65,.08,.06,.17,.11,.23,.17,1.44,1.45,2.88,2.9,4.32,4.34,1.64,1.65,3.29,3.3,4.93,4.96,.29,.29,.62,.45,1.03,.38,.5-.08,.83-.4,.99-.86,.16-.47,.02-.88-.33-1.23-1.46-1.47-2.92-2.94-4.39-4.4-1.7-1.68-3.41-3.35-5.11-5.02Zm4.22-5.48c.69-.39,1.42-.72,2.26-.64,.73,.07,1.34,.35,1.65,1.09,.21,.5,.44,1,.67,1.49,.17,.37,.3,.4,.59,.11,.55-.55,1.1-1.1,1.64-1.65,.31-.31,.28-.44-.12-.63-.56-.26-1.13-.52-1.7-.77-.24-.11-.35-.27-.35-.53,0-.22-.04-.44-.09-.65-.19-.8-.62-1.48-1.16-2.08-1.31-1.45-2.81-2.57-4.84-2.75-.92-.08-1.8,.11-2.69,.51,.14,.05,.22,.08,.3,.11,.88,.33,1.73,.72,2.44,1.36,.77,.7,1.22,1.54,.97,2.6-.12,.5-.37,.97-.57,1.47,.3,.29,.63,.61,.98,.96Zm-10.09,10.85c-.6-.6-1.16-1.14-1.65-1.63-2.33,2.29-4.68,4.59-7.02,6.9,.58,.57,1.14,1.12,1.66,1.62,2.32-2.28,4.67-4.58,7.02-6.89Zm8.48-11.02c-3.04,2.99-6.08,5.97-9.09,8.93,.33,.33,.63,.62,.83,.81,3.02-2.96,6.06-5.95,9.1-8.94-.32-.31-.6-.59-.84-.81Z"/>
            <path class="cls-11" d="M925.6,34.97c.27,0,.46,.21,.45,.48-.01,.26-.2,.44-.47,.44-.27,0-.46-.21-.45-.48,.01-.25,.21-.44,.47-.44Z"/>
            <path class="cls-11" d="M926.86,34.61c0,.27-.2,.48-.46,.48-.24,0-.45-.21-.46-.45,0-.26,.19-.47,.47-.46,.27,0,.45,.18,.46,.44Z"/>
            <path class="cls-11" d="M925.24,36.26c0,.25-.23,.48-.48,.47-.25,0-.45-.21-.45-.46,0-.27,.2-.47,.47-.47,.25,0,.45,.22,.45,.46Z"/>
            <path class="cls-11" d="M923.96,36.63c.26,0,.46,.19,.47,.44,0,.24-.23,.48-.47,.48-.25,0-.46-.22-.46-.48,0-.26,.2-.44,.46-.44Z"/>
            <path class="cls-11" d="M923.62,37.91c0,.26-.23,.46-.49,.45-.25-.01-.45-.23-.44-.47,0-.26,.22-.46,.49-.45,.25,.01,.45,.22,.45,.47Z"/>
            <path class="cls-11" d="M939.48,32.51c-.1,.12-.17,.31-.31,.36-.14,.05-.38,.04-.49-.05-.4-.31-.77-.66-1.14-1-.19-.18-.2-.42-.05-.62,.16-.2,.41-.26,.61-.1,.42,.34,.82,.71,1.22,1.08,.07,.06,.09,.18,.16,.33Z"/>
            <path class="cls-11" d="M936.63,31.24c-.36-.14-.66-.23-.92-.37-.2-.11-.26-.33-.15-.55,.1-.21,.28-.33,.51-.27,.26,.07,.51,.17,.75,.28,.23,.11,.31,.35,.2,.56-.07,.15-.27,.25-.39,.36Z"/>
          </g>
        </g>
      </g>
      <g>
        <text class="cls-159" transform="translate(444.43 93.26)"><tspan x="0" y="0">OFICIOS Y </tspan><tspan x="-13.96" y="10.61">P</tspan><tspan class="cls-5" x="-8.14" y="10.61">R</tspan><tspan class="cls-134" x="-2.36" y="10.61">OFESIONALES</tspan></text>
        <g>
          <path class="cls-81" d="M464.37,12.17c-11.13,1.23-20.16,10.17-21.5,21.29-.82,6.79,1.16,13.1,4.92,17.97l18.32,24.76c.52,.7,1.57,.7,2.1,0l18.32-24.76c3.2-4.13,5.1-9.32,5.1-14.94,0-14.43-12.49-25.94-27.25-24.31Z"/>
          <g>
            <path class="cls-11" d="M456.39,35.63c.13,.08,.27,.15,.38,.26,1.9,1.9,3.8,3.8,5.7,5.7,.59,.59,.79,1.29,.57,2.09-.22,.79-.75,1.28-1.55,1.46-.78,.17-1.44-.07-2-.63-1.89-1.89-3.78-3.78-5.67-5.67-.11-.11-.19-.24-.28-.36-.06,0-.12,.02-.18,.02-.07,.22-.21,.45-.21,.67,0,.93-.39,1.6-1.23,1.98-.77,.35-1.61,.14-2.28-.51-.65-.64-1.3-1.29-1.94-1.94-.66-.66-.85-1.51-.5-2.28,.38-.83,1.03-1.24,1.95-1.21,.27,0,.46-.07,.65-.27,1.03-1.05,2.08-2.08,3.1-3.13,.13-.14,.23-.38,.23-.57,0-.93,.38-1.61,1.23-1.99,.78-.35,1.62-.15,2.31,.53,.64,.63,1.28,1.27,1.91,1.91,.66,.66,.86,1.51,.52,2.28-.38,.85-1.05,1.24-1.98,1.23-.22,0-.44,.12-.66,.18l-.06,.23Zm-1.96,1.95c.43,.42,.87,.82,1.29,1.24,1.56,1.55,3.11,3.12,4.68,4.66,.19,.19,.54,.34,.79,.31,.21-.02,.51-.32,.54-.52,.03-.25-.1-.6-.29-.79-1.91-1.95-3.85-3.87-5.78-5.8-.06-.06-.12-.1-.16-.14-.35,.34-.67,.66-1.07,1.04Zm-1.99-.14c.99-.97,1.99-1.97,2.96-2.92-.52-.52-1.06-1.07-1.54-1.55-.99,.97-2,1.96-2.96,2.91,.52,.53,1.07,1.08,1.55,1.56Zm4.47-3.57c.48,.02,.78-.05,.93-.39,.15-.34,0-.61-.24-.85-.64-.63-1.27-1.27-1.91-1.9-.34-.34-.75-.36-1.02-.07-.26,.28-.27,.86,0,1.13,.63,.64,1.27,1.28,1.91,1.9,.12,.11,.29,.16,.33,.19Zm-7.64,2.6c-.38,.05-.68,.13-.82,.48-.14,.34,.01,.6,.26,.85,.63,.62,1.25,1.25,1.88,1.88,.35,.34,.74,.38,1.02,.1,.28-.28,.29-.87,0-1.16-.62-.63-1.25-1.26-1.88-1.87-.13-.12-.31-.18-.46-.27Z"/>
            <path class="cls-11" d="M487.07,37.21c0,2.37,0,4.74,0,7.1,0,.66-.2,.86-.87,.86-4.75,0-9.5,0-14.25,0-.34,0-.64-.05-.79-.4-.15-.36,.01-.63,.27-.88,4.79-4.79,9.58-9.58,14.37-14.37,.26-.26,.52-.42,.88-.26,.35,.15,.4,.45,.4,.79,0,2.38,0,4.76,0,7.15Zm-1.35-5.52c-4.04,4.04-8.11,8.11-12.14,12.14h12.14v-1.29c-.22-.01-.42-.03-.62-.04v-1.29c.22-.01,.42-.02,.62-.03v-1.99h-.61v-1.3c.22-.01,.42-.03,.61-.04v-1.96c-.22-.01-.41-.02-.6-.03v-1.32h.62v-2.84Z"/>
            <path class="cls-11" d="M466.46,45.16h-1.34v-9.28h-1.31v-1.33h.87c-.27-.55-.5-1.05-.76-1.53-.17-.32-.17-.61,0-.94,.84-1.66,1.68-3.34,2.51-5.01,.14-.29,.32-.51,.68-.52,.36,0,.54,.22,.68,.51,.83,1.67,1.66,3.34,2.51,5.01,.17,.33,.16,.62,0,.94-.25,.47-.48,.96-.75,1.5h.87v1.34h-1.29v9.3h-1.34v-9.26h-1.32v9.26Zm-.01-14.91l-.08-.02c-.27,.54-.51,1.1-.83,1.61-.3,.49-.32,.91,0,1.4,.26,.4,.36,1.02,.71,1.23,.37,.22,.97,.05,1.46,.08,.23,.01,.35-.06,.45-.27,.23-.5,.49-.99,.73-1.49,.05-.09,.12-.23,.08-.3-.36-.76-.75-1.52-1.12-2.27-.03,0-.06,.02-.09,.03v2.27h-1.31v-2.27Z"/>
            <path class="cls-11" d="M480.71,42.52c-.73,0-1.47,0-2.2,0-.33,0-.57-.11-.7-.41-.12-.3-.04-.56,.19-.79,1.52-1.52,3.04-3.04,4.56-4.56,.23-.23,.49-.31,.79-.18,.29,.12,.4,.36,.4,.67,0,1.51,0,3.02,0,4.53,0,.49-.24,.73-.75,.73-.76,0-1.52,0-2.29,0Zm1.69-3.47c-.7,.7-1.44,1.44-2.11,2.11h2.11v-2.11Z"/>
          </g>
        </g>
      </g>
    </g>
    <g>
      <g>
        <g>
          <circle class="cls-8" cx="389.7" cy="174.14" r="30.95"/>
          <g>
            <g>
              <path class="cls-39" d="M392.07,162.08c0-1.48-1.2-2.68-2.68-2.68-1.04,0-1.93,.6-2.38,1.46-.88-.5-1.9-.79-2.99-.79s-2.1,.29-2.99,.79c-.44-.87-1.34-1.46-2.38-1.46-1.48,0-2.68,1.2-2.68,2.68,0,1.31,.94,2.39,2.18,2.63-.11,.45-.17,.91-.17,1.39,0,3.33,2.7,6.03,6.03,6.03s6.03-2.7,6.03-6.03c0-.48-.06-.94-.17-1.39,1.24-.24,2.18-1.32,2.18-2.63Z"/>
              <line class="cls-28" x1="384.03" y1="167.44" x2="384.03" y2="168.53"/>
              <polyline class="cls-28" points="382.69 167.44 384.03 167.44 385.37 167.44"/>
              <line class="cls-39" x1="381.35" y1="164.76" x2="381.35" y2="166.1"/>
              <line class="cls-39" x1="386.71" y1="164.76" x2="386.71" y2="166.1"/>
              <path class="cls-39" d="M380.01,176.15c-.61,.54-.94,1.27-1.12,1.92"/>
              <path class="cls-39" d="M388.05,176.15c.61,.55,.95,1.29,1.13,1.95"/>
              <path class="cls-39" d="M389.99,171.98c2.51,1.61,4.23,3.97,4.76,5.37,.67,1.79,.77,3.55-1.91,4.14"/>
              <path class="cls-39" d="M378.3,171.86c-2.67,1.61-4.38,4.02-4.93,5.48-.67,1.79-.83,3.53,1.85,4.13"/>
              <ellipse class="cls-39" cx="389.39" cy="184.19" rx="4.02" ry="4.69"/>
              <ellipse class="cls-39" cx="378.67" cy="184.19" rx="4.02" ry="4.69"/>
            </g>
            <g>
              <line class="cls-39" x1="401.14" y1="182.47" x2="406.45" y2="182.47"/>
              <polygon class="cls-22" points="406.45 184.89 403.72 187.87 401 184.89 401 160.1 406.45 160.1 406.45 184.89"/>
            </g>
            <line class="cls-39" x1="403.86" y1="161.83" x2="403.86" y2="180.7"/>
          </g>
        </g>
        <text class="cls-156" transform="translate(356.84 225.06)"><tspan x="0" y="0">JUGU</tspan><tspan class="cls-124" x="23.05" y="0">E</tspan><tspan x="28.79" y="0">TERÍA Y</tspan><tspan x="11.23" y="11.04">LIBRERÍA</tspan></text>
      </g>
      <g>
        <text class="cls-156" transform="translate(201.29 223.27)"><tspan x="0" y="0">HOGAR Y D</tspan><tspan class="cls-110" x="51.3" y="0">E</tspan><tspan class="cls-161" x="56.94" y="0">C</tspan><tspan x="62.48" y="0">O</tspan></text>
        <g>
          <circle class="cls-8" cx="235.08" cy="174.14" r="30.95"/>
          <g>
            <polyline class="cls-28" points="229.09 188.78 231.29 188.78 238.88 188.78 245.38 188.78 245.38 175.22"/>
            <polyline class="cls-28" points="224.78 175.22 224.78 188.78 226.62 188.78"/>
            <polygon class="cls-20" points="249.72 174.14 247.01 176.85 245.38 175.22 235.08 164.92 224.78 175.22 223.16 176.85 220.44 174.14 224.78 169.8 229.66 164.92 235.08 159.5 249.72 174.14"/>
            <rect class="cls-20" x="231.29" y="179.02" width="7.59" height="9.76"/>
            <polygon class="cls-20" points="229.66 161.13 229.66 164.92 224.78 169.8 224.78 161.13 229.66 161.13"/>
            <polyline class="cls-28" points="241.99 166.41 249.72 174.14 247.01 176.85 245.38 175.22 239.56 169.4"/>
            <polyline class="cls-28" points="237.65 167.49 235.08 164.92 224.78 175.22 223.16 176.85 220.44 174.14 224.78 169.8 229.66 164.92 235.08 159.5 241.99 166.41"/>
            <polyline class="cls-28" points="224.78 167.43 224.78 161.13 229.66 161.13 229.66 162.55"/>
            <polyline class="cls-28" points="238.88 188.78 238.88 179.02 231.29 179.02 231.29 188.78"/>
          </g>
        </g>
      </g>
      <g>
        <text class="cls-156" transform="translate(273.19 223.25)"><tspan x="0" y="0">INDUMEN</tspan><tspan class="cls-196" x="45.15" y="0">T</tspan><tspan x="50.27" y="0">ARIA</tspan><tspan x="3.44" y="11.04">Y </tspan><tspan class="cls-80" x="11.68" y="11.04">AC</tspan><tspan x="23.79" y="11.04">CESORIOS</tspan></text>
        <g>
          <circle class="cls-8" cx="312.66" cy="174.14" r="30.95"/>
          <g>
            <line class="cls-28" x1="304.14" y1="174.69" x2="304.14" y2="189.47"/>
            <path class="cls-28" d="M307.66,167.22h-3.23c-1.99,0-3.68,2.28-3.68,2.28l-5.55,6.29,5.26,5.26,3.68-3.68"/>
            <path class="cls-28" d="M317.66,167.22s-1.17,4.62-5,4.62-5-4.62-5-4.62"/>
            <path class="cls-28" d="M321.17,177.36l3.69,3.68,5.26-5.26-5.55-6.29s-1.69-2.28-3.68-2.28h-3.23"/>
            <line class="cls-28" x1="321.17" y1="189.11" x2="321.17" y2="174.69"/>
            <path class="cls-39" d="M310.01,161.46c0-1.46,1.19-2.65,2.65-2.65s2.65,1.19,2.65,2.65c0,1.24-.85,2.28-2.01,2.57-.39,.11-.64,.4-.64,.77v2.42h1.62"/>
            <line class="cls-39" x1="312.66" y1="167.22" x2="307.66" y2="167.22"/>
          </g>
        </g>
      </g>
      <g>
        <text class="cls-156" transform="translate(503.46 223.27)"><tspan x="0" y="0">SA</tspan><tspan class="cls-161" x="12.03" y="0">L</tspan><tspan class="cls-136" x="17.16" y="0">UD Y CUI</tspan><tspan class="cls-228" x="56.81" y="0">D</tspan><tspan x="63.57" y="0">ADO</tspan><tspan x="17.36" y="11.04">PE</tspan><tspan class="cls-216" x="29.2" y="11.04">R</tspan><tspan x="35.41" y="11.04">SONAL</tspan></text>
        <g>
          <circle class="cls-8" cx="541.47" cy="174.14" r="30.95"/>
          <g>
            <g>
              <rect class="cls-39" x="548.05" y="161.72" width="1.93" height="2.24"/>
              <path class="cls-39" d="M550.29,161.72h-2.24s-1.23,.05-2.43-.31c-.83-.25-1.53-.65-1.53-1.56h6.2v1.87Z"/>
              <path class="cls-39" d="M547.55,163.96h2.94c.4,0,.72,.32,.72,.72v3.13h-4.37v-3.13c0-.4,.32-.72,.72-.72Z"/>
              <path class="cls-39" d="M547.72,188.4h-2.05c-.56,0-1.01-.45-1.01-1.01v-16.75c0-1.57,1.27-2.83,2.83-2.83h3.06c1.57,0,2.83,1.27,2.83,2.83v16.75c0,.56-.45,1.01-1.01,1.01h-1.76"/>
            </g>
            <g>
              <path class="cls-39" d="M532.56,185.77h5.7v1.92c0,.41-.33,.74-.74,.74h-4.21c-.41,0-.74-.33-.74-.74v-1.92h0Z"/>
              <path class="cls-39" d="M535.22,160.28h6.05l-1.55,23.87c-.06,.9-.95,1.62-2,1.62h-4.62c-1.06,0-1.95-.71-2-1.62l-1.55-23.87h2.79"/>
              <polygon class="cls-39" points="539.93 180.91 530.89 180.91 529.75 163.4 541.04 163.4 539.93 180.91"/>
            </g>
          </g>
        </g>
      </g>
      <g>
        <text class="cls-156" transform="translate(128.39 223.27)"><tspan x="0" y="0">ALIMEN</tspan><tspan class="cls-100" x="36.26" y="0">T</tspan><tspan x="41.8" y="0">OS</tspan></text>
        <g>
          <circle class="cls-8" cx="157.77" cy="174.14" r="30.95"/>
          <g>
            <line class="cls-25" x1="161.22" y1="183.18" x2="166.77" y2="177.63"/>
            <line class="cls-25" x1="164.85" y1="183.18" x2="167.15" y2="180.89"/>
            <g>
              <line class="cls-30" x1="145.16" y1="187.75" x2="145.16" y2="174.04"/>
              <line class="cls-30" x1="170.39" y1="174.04" x2="170.39" y2="187.75"/>
              <line class="cls-30" x1="153.1" y1="174.04" x2="153.1" y2="187.71"/>
            </g>
            <line class="cls-25" x1="150.37" y1="178.47" x2="150.37" y2="180.32"/>
            <g>
              <path class="cls-32" d="M154.86,169.13c0,1.58-1.28,2.86-2.86,2.86s-2.83-1.28-2.83-2.86"/>
              <path class="cls-32" d="M160.57,169.13c0,1.58-1.28,2.86-2.86,2.86s-2.86-1.28-2.86-2.86"/>
              <path class="cls-32" d="M166.31,169.13c0,1.58-1.31,2.86-2.89,2.86s-2.86-1.28-2.86-2.86"/>
            </g>
            <path class="cls-32" d="M166.31,169.13c0,1.58,1.31,2.86,2.89,2.86s2.86-1.28,2.86-2.86v-2.48l-3.48-6.13h-21.52l-3.55,6.13v2.48c0,1.58,1.28,2.86,2.86,2.86s2.83-1.28,2.83-2.86"/>
            <g>
              <line class="cls-32" x1="155.26" y1="164" x2="155.48" y2="160.58"/>
              <line class="cls-32" x1="150.27" y1="164" x2="151.08" y2="160.58"/>
              <line class="cls-32" x1="160.17" y1="164" x2="159.95" y2="160.58"/>
              <line class="cls-32" x1="165.16" y1="164" x2="164.35" y2="160.58"/>
            </g>
            <line class="cls-32" x1="142.64" y1="187.75" x2="172.91" y2="187.75"/>
          </g>
        </g>
      </g>
      <g>
        <text class="cls-156" transform="translate(607.56 223.27)"><tspan class="cls-56" x="0" y="0">V</tspan><tspan x="6.16" y="0">ARIOS</tspan></text>
        <g>
          <circle class="cls-8" cx="621.62" cy="174.14" r="30.95"/>
          <g>
            <path class="cls-33" d="M626.52,171.6h1.41c.99,0,1.23,.73,1.06,1.62,0,0-.4,4.56-.53,5.01-.13,.45-.4,1.11-1.07,1.11h-5.34c-1.46,0-1.55-1.41-2.58-1.41h-1.41"/>
            <path class="cls-33" d="M621.53,174.75c1.37,0,2.35-.92,2.6-2.03,.09-.41,.21-.82,.41-1.2,.12-.23,.24-.47,.28-.59,.06-.2,.31-.59,.31-1.52,0-.93-.11-1.39-.67-1.86-.53-.45-1.33-.25-1.33,.26v.53c0,1.12-.83,1.42-1.68,2.26,0,0-.9,.99-1.97,.99h-1.41"/>
            <rect class="cls-33" x="614.55" y="170.19" width="3.52" height="9.16"/>
            <polygon class="cls-33" points="627.88 187.33 624.29 185.4 621.92 188.71 619.43 185.49 615.91 187.55 614.95 183.59 610.9 184.04 611.63 180.03 607.75 178.8 610.05 175.44 607 172.73 610.47 170.59 608.78 166.88 612.82 166.34 612.79 162.26 616.7 163.41 618.34 159.67 621.44 162.31 624.45 159.56 626.21 163.24 630.08 161.95 630.2 166.03 634.26 166.42 632.71 170.19 636.25 172.2 633.3 175.02 635.72 178.3 631.88 179.67 632.76 183.65 628.69 183.34 627.88 187.33"/>
          </g>
        </g>
      </g>
      <g>
        <text class="cls-156" transform="translate(979.25 223.27)"><tspan x="0" y="0">CUEN</tspan><tspan class="cls-196" x="25.46" y="0">T</tspan><tspan x="30.59" y="0">A DNI</tspan><tspan class="cls-80" x="1.13" y="11.04">C</tspan><tspan x="6.67" y="11.04">OME</tspan><tspan class="cls-93" x="28.29" y="11.04">R</tspan><tspan class="cls-191" x="34.3" y="11.04">CIOS</tspan></text>
        <g>
          <circle class="cls-8" cx="1008.17" cy="174.14" r="30.95"/>
          <g>
            <path class="cls-11" d="M999.79,175.87c-.16,0-.31-.04-.46-.13-.41-.25-.54-.79-.29-1.2,.75-1.22,2.05-1.95,3.48-1.95,.48,0,.87,.39,.87,.87s-.39,.87-.87,.87c-.82,0-1.56,.42-1.99,1.12-.16,.27-.45,.42-.75,.42"/>
            <path class="cls-11" d="M1001.19,176.73c-.17,0-.3-.15-.27-.32,.15-.8,.85-1.41,1.7-1.41s1.55,.61,1.7,1.41c.03,.17-.1,.32-.27,.32h-2.85Z"/>
            <path class="cls-11" d="M1010.53,176.73c-.17,0-.3-.15-.27-.32,.15-.8,.85-1.41,1.7-1.41s1.55,.61,1.7,1.41c.03,.17-.1,.32-.27,.32h-2.85Z"/>
            <path class="cls-11" d="M1007.5,184.78h-2.11c-.48,0-.87-.39-.87-.87s.39-.87,.87-.87h2.11c.16,0,.29-.13,.29-.29v-6.07c0-2.25,1.83-4.08,4.08-4.08,.48,0,.87,.39,.87,.87s-.39,.87-.87,.87c-1.29,0-2.33,1.05-2.33,2.33v6.07c0,1.12-.91,2.03-2.03,2.03"/>
            <path class="cls-11" d="M1004.3,189.75c-4.47,0-8.24-3.72-8.24-8.13,0-.48,.39-.87,.87-.87s.87,.39,.87,.87c0,3.46,2.97,6.38,6.49,6.38,.48,0,.87,.39,.87,.87s-.39,.87-.87,.87"/>
            <path class="cls-11" d="M1018.23,167.5h-2.64v-3.18c0-3.2-2.6-5.8-5.8-5.8-.58,0-1.14,.08-1.68,.25-.53-.16-1.1-.25-1.68-.25-3.2,0-5.8,2.6-5.8,5.8v3.18h-2.53c-1.13,0-2.05,.91-2.05,2.03v3c0,.48,.39,.87,.87,.87s.87-.39,.87-.87v-3c0-.16,.14-.28,.3-.28h16.61c.17,0,.3,.13,.3,.28v14.62c0,.48,.39,.87,.87,.87s.87-.39,.87-.87v-14.62c0-.1,0-.19-.02-.28h1.49c.17,0,.3,.13,.3,.28v18.21c0,.16-.14,.28-.3,.28h-7.13c-.48,0-.87,.39-.87,.87s.39,.87,.87,.87h7.13c1.13,0,2.05-.91,2.05-2.03v-18.21c0-1.12-.92-2.03-2.05-2.03m-4.38-3.18v3.18h-1.62v-3.18c0-1.53-.6-2.92-1.57-3.96,1.82,.4,3.19,2.02,3.19,3.96m-11.47,0c0-2.23,1.82-4.05,4.05-4.05s4.05,1.82,4.05,4.05v3.18h-4.74v-3.18c0-.62,.13-1.21,.4-1.76,.21-.43,.03-.96-.41-1.16-.43-.21-.96-.03-1.16,.41-.38,.79-.57,1.63-.57,2.51v3.18h-1.62v-3.18Z"/>
          </g>
        </g>
      </g>
      <g>
        <text class="cls-156" transform="translate(53.61 223.27)"><tspan x="0" y="0">EL</tspan><tspan class="cls-13" x="11.06" y="0">E</tspan><tspan class="cls-71" x="16.7" y="0">C</tspan><tspan x="22.47" y="0">T</tspan><tspan class="cls-207" x="28.4" y="0">R</tspan><tspan x="34.42" y="0">O Y</tspan><tspan x="-1.54" y="11.04">CE</tspan><tspan class="cls-80" x="9.93" y="11.04">L</tspan><tspan x="15.07" y="11.04">ULARES</tspan></text>
        <g>
          <circle class="cls-8" cx="80.47" cy="174.14" r="30.95"/>
          <g>
            <rect class="cls-39" x="84.6" y="166.46" width="11.81" height="21.26" rx="1.77" ry="1.77"/>
            <line class="cls-39" x1="84.6" y1="168.82" x2="96.41" y2="168.82"/>
            <line class="cls-39" x1="89.32" y1="185.95" x2="91.69" y2="185.95"/>
            <line class="cls-39" x1="84.6" y1="184.18" x2="96.41" y2="184.18"/>
            <path class="cls-39" d="M82.24,178.86h-17.72l.53,1.06c.4,.8,1.22,1.31,2.11,1.31h15.07"/>
            <polyline class="cls-39" points="66.88 176.5 66.88 160.56 91.69 160.56 91.69 164.1"/>
          </g>
        </g>
      </g>
      <g>
        <text class="cls-156" transform="translate(666.33 225.06)"><tspan class="cls-199" x="0" y="0">A</tspan><tspan x="6.62" y="0">U</tspan><tspan class="cls-116" x="13.51" y="0">T</tspan><tspan x="19.05" y="0">OM</tspan><tspan class="cls-73" x="34.89" y="0">Ó</tspan><tspan x="41.89" y="0">VIL</tspan></text>
        <g>
          <circle class="cls-8" cx="698.93" cy="174.14" r="30.95"/>
          <g>
            <path class="cls-11" d="M680.02,172.73c.21-.75,.48-1.46,1.03-2.04,.75-.78,1.64-1.25,2.73-1.28,.9-.03,1.6-.38,2.09-1.16,.36-.57,.75-1.13,1.12-1.69,.84-1.26,2.01-1.9,3.54-1.89,3.68,.01,7.36,.01,11.04,0,1.07,0,1.99,.33,2.82,1,1.96,1.57,3.92,3.13,5.88,4.71,.49,.39,1.02,.58,1.66,.6,.8,.02,1.62,0,2.38,.18,1.73,.44,2.69,1.72,3.22,3.35,.32,.98,.44,1.99,.18,3.01-.39,1.47-1.34,2.39-2.8,2.79-.21,.06-.29,.14-.35,.35-.85,2.94-4.35,3.9-6.56,1.8-.49-.46-.85-1.02-1.02-1.68-.06-.24-.15-.33-.42-.33-5.08,0-10.17,.01-15.25,0-.3,0-.36,.15-.43,.37-.77,2.46-3.67,3.56-5.83,2.19-.88-.56-1.48-1.35-1.77-2.37-.03-.12-.17-.26-.29-.3-1.57-.5-2.58-1.52-2.91-3.16,0-.03-.04-.06-.06-.09,0-1.45,0-2.9,0-4.36Zm34.6,5.99c.74-.21,1.28-.7,1.48-1.39,.32-1.13,.07-2.19-.46-3.2-.44-.85-1.13-1.4-2.08-1.53-.5-.07-1.01-.03-1.51-.03-1.03,0-1.95-.3-2.76-.95-1.93-1.56-3.88-3.1-5.82-4.66-.54-.43-1.12-.69-1.82-.69-3.72,0-7.43,0-11.15,0-.97,0-1.69,.42-2.21,1.23-.38,.59-.78,1.17-1.17,1.75-.52,.79-1.22,1.35-2.14,1.59-.44,.11-.9,.15-1.35,.19-.96,.09-1.95,1.02-1.98,1.98-.04,1.28-.04,2.56,0,3.84,.03,.84,.81,1.7,1.6,1.85,.64-1.84,1.89-2.99,3.88-2.97,2.04,.02,3.28,1.22,3.87,3.12h15.87c.51-1.83,1.83-2.98,3.6-3.13,1.79-.16,3.11,.8,4.15,3.01Zm-27.5,3.27c1.29,0,2.35-1.06,2.35-2.34,0-1.29-1.08-2.35-2.38-2.35-1.28,0-2.35,1.1-2.33,2.36,.02,1.29,1.08,2.33,2.37,2.32Zm23.63,0c1.29,0,2.35-1.05,2.35-2.34,0-1.29-1.08-2.36-2.38-2.35-1.28,0-2.35,1.09-2.33,2.36,.02,1.29,1.08,2.33,2.36,2.33Z"/>
            <path class="cls-11" d="M698.92,170.97c2.33,0,4.61,0,6.88,0,.55,0,.85,.2,.96,.62,.1,.38-.11,.8-.48,.91-.17,.05-.36,.07-.54,.07-2.45,0-4.89,0-7.34,0-.78,0-1.06-.29-1.07-1.07,0-.87,0-1.75,0-2.62,0-.19,.02-.4,.08-.58,.12-.34,.49-.52,.87-.45,.36,.06,.62,.36,.63,.75,.01,.66,0,1.33,0,1.99,0,.12,0,.23,0,.36Z"/>
            <path class="cls-11" d="M689.99,170.97c.18,0,.31,0,.44,0,1.46,0,2.92,0,4.39,0,.53,0,.87,.24,.94,.65,.09,.56-.27,.95-.92,.96-1.28,0-2.56,0-3.83,0-.73,0-1.45,0-2.18,0-.78,0-1.13-.58-.78-1.28,.47-.96,.95-1.91,1.43-2.87,.14-.27,.3-.51,.63-.57,.32-.06,.59,.02,.79,.28,.21,.27,.21,.57,.07,.87-.25,.52-.51,1.03-.77,1.55-.06,.12-.11,.24-.19,.41Z"/>
            <path class="cls-11" d="M700.54,174.14c.26,0,.52-.01,.77,0,.42,.02,.74,.34,.77,.75,.03,.39-.27,.77-.7,.8-.6,.03-1.2,.03-1.8,0-.41-.03-.67-.39-.66-.79,.02-.39,.32-.71,.73-.75,.02,0,.05,0,.07,0,.27,0,.54,0,.81,0h0Z"/>
          </g>
        </g>
      </g>
      <g>
        <text class="cls-156" transform="translate(764.23 223.27)"><tspan class="cls-228" x="0" y="0">A</tspan><tspan class="cls-191" x="6.57" y="0">G</tspan><tspan class="cls-93" x="13.13" y="0">R</tspan><tspan x="19.15" y="0">O</tspan></text>
        <g>
          <circle class="cls-8" cx="776.24" cy="174.14" r="30.95"/>
          <g>
            <path class="cls-11" d="M790.93,181.59c-.12,.43-.19,.88-.36,1.29-.75,1.82-2.1,2.93-4.05,3.24-2.81,.45-5.33-1.51-5.82-4.08,0-.05-.03-.09-.06-.16h-3.61c0-.13,0-.23,0-.33-.02-.97,0-1.93-.05-2.9-.08-1.55-.6-2.97-1.48-4.24-1.07-1.54-2.48-2.64-4.26-3.24-2.52-.85-4.94-.59-7.25,.75-.18,.11-.36,.22-.53,.34-.17,.12-.34,.25-.52,.38-.37-.45-.73-.88-1.1-1.33,1.19-.98,2.51-1.65,3.99-2.04v-5.48h-1.7v-1.71h13.74v1.69h-1.4c.69,2.32,1.38,4.6,2.06,6.88h3.78c0-.11,0-.22,0-.32,0-1.33,0-2.66,0-3.99,.01-1.31,.97-2.38,2.26-2.55,.09-.01,.19-.01,.3-.02,0,.58,0,1.14,0,1.7-.71,.24-.84,.43-.84,1.19,0,1.32,0,2.64,0,4,.18,0,.35,0,.51,0,.7,.04,1.43-.01,2.11,.13,1.46,.31,2.53,1.73,2.54,3.22,0,.97,0,1.93,0,2.9,0,.11,.04,.25,.11,.33,.86,.85,1.39,1.85,1.56,3.05,0,.02,.03,.04,.05,.07v1.21Zm-23.35-12.62c.07,0,.11,.01,.14,0,2.27-.12,4.37,.4,6.29,1.63,.06,.04,.14,.08,.21,.08,.82,0,1.64,0,2.51,0-.69-2.31-1.38-4.6-2.06-6.86h-7.1v5.15Zm18.17,8.61c-1.88,0-3.43,1.56-3.43,3.44,0,1.88,1.57,3.46,3.45,3.45,1.88,0,3.43-1.56,3.43-3.44,0-1.88-1.57-3.46-3.45-3.45Zm1.73-1.43c0-.63,0-1.22,0-1.81,0-1.21-.72-1.93-1.92-1.93-3.03,0-6.06,0-9.09,0h-.32c.07,.1,.1,.15,.15,.2,.76,.9,1.36,1.89,1.77,2.99,.08,.21,.19,.26,.4,.26,2,0,4,0,6,0,1.01,0,2.03-.1,3.02,.29Zm-8.81,1.44c.04,.86,.08,1.7,.12,2.57,.57,0,1.15,0,1.72,0,.07,0,.16-.12,.2-.21,.23-.55,.44-1.11,.68-1.65,.11-.24,.3-.45,.48-.7h-3.2Z"/>
            <path class="cls-11" d="M768.42,172.41c3.8,0,6.89,3.08,6.9,6.88,0,3.8-3.08,6.89-6.88,6.9-3.8,0-6.89-3.08-6.9-6.88,0-3.8,3.08-6.89,6.88-6.9Zm5.18,6.85c-.08-2.94-2.38-5.14-5.21-5.11-2.86,.02-5.15,2.38-5.12,5.18,.04,2.85,2.4,5.19,5.2,5.14,2.93-.06,5.11-2.37,5.13-5.2Z"/>
            <path class="cls-11" d="M786.63,181.02c0,.49-.39,.86-.88,.85-.47,0-.84-.39-.84-.87,0-.49,.39-.86,.88-.85,.47,0,.84,.39,.84,.87Z"/>
            <path class="cls-11" d="M771.02,179.3c0,1.42-1.17,2.58-2.6,2.58-1.42,0-2.58-1.18-2.57-2.6,0-1.41,1.17-2.56,2.58-2.56,1.42,0,2.59,1.16,2.58,2.59Zm-1.72,0c0-.46-.41-.86-.87-.85-.45,0-.84,.4-.85,.85,0,.45,.4,.87,.85,.87,.46,0,.86-.41,.86-.86Z"/>
          </g>
        </g>
      </g>
      <g>
        <text class="cls-156" transform="translate(829.92 225.06)"><tspan x="0" y="0">A</tspan><tspan class="cls-89" x="6.72" y="0">R</tspan><tspan class="cls-191" x="12.56" y="0">TESANÍ</tspan><tspan class="cls-226" x="46.11" y="0">A</tspan><tspan x="52.66" y="0">S</tspan></text>
        <g>
          <circle class="cls-8" cx="853.55" cy="174.14" r="30.95"/>
          <path class="cls-11" d="M847.92,189.32c-.36-.11-.73-.18-1.07-.32-1.11-.47-1.94-1.25-2.34-2.38-1.17-3.26-2.34-6.53-3.42-9.82-.93-2.82,1.03-5.85,3.98-6.26,.65-.09,1.32-.01,2-.01v-8.74c-.27,0-.53,0-.8,0-.76,0-1.52,0-2.28,0-.72,0-1.07-.36-1.07-1.08,0-.26,0-.51,0-.77,.01-.61,.39-.97,.99-.97,2.83,0,5.65,0,8.48,0,3.58,0,7.15,0,10.73,0,.7,0,1.05,.35,1.06,1.05,0,.26,0,.51,0,.77-.01,.62-.37,.98-1.01,.99-.94,0-1.88,0-2.82,0-.11,0-.21,0-.34,0v8.68c.43,0,.85,0,1.27,0,2.31,.03,4.21,1.53,4.79,3.77,.25,.99,.17,1.96-.16,2.91-1.08,3.08-2.15,6.16-3.23,9.23-.57,1.61-1.71,2.58-3.4,2.9-.04,0-.07,.03-.1,.05h-11.27Zm9.97-8.55c0-.48,0-.94,0-1.41,0-.89,.32-1.22,1.21-1.22,1.75,0,3.5,0,5.25,0,.2,0,.3-.04,.36-.24,.11-.38,.26-.74,.38-1.12,.8-2.39-.55-4.82-3.01-5.33-.69-.14-1.42-.06-2.12-.11-.22-.02-.5-.1-.62-.26-.15-.2-.24-.5-.24-.76-.02-2.73-.01-5.45-.01-8.18,0-.11,0-.23,0-.37-.34,0-.64,0-.93,0-.64,0-1.28,0-1.93,0-.28,0-.46-.2-.47-.44,0-.25,.2-.44,.48-.46,.08,0,.16,0,.24,0,2.14,0,4.29,0,6.43,0,.12,0,.23,0,.36,0v-.99h-19.41v.99c.14,0,.26,0,.38,0,3.22,0,6.44,0,9.67,0,.47,0,.69,.14,.69,.46,0,.32-.21,.45-.69,.45-1.83,0-3.66,0-5.48,0-.12,0-.23,0-.38,0,0,.15,0,.27,0,.38,0,2.74,0,5.47,0,8.21,0,.67-.31,.97-.98,.98-.59,0-1.19,0-1.77,.06-2.03,.23-3.58,2.11-3.49,4.15,.04,.88,.4,1.66,.68,2.47,.02,.06,.15,.11,.23,.11,.39,.01,.79,0,1.19,0,.35,0,.54,.18,.54,.46,0,.28-.21,.45-.55,.45-.34,0-.68,0-1.06,0,.1,.29,.2,.53,.27,.79,.05,.19,.16,.23,.34,.23,1.03,0,2.06,0,3.08,0,.52,0,.78,.25,.79,.78,.01,.5,0,1.01,0,1.51,0,.1,.01,.21,.02,.31h4.82c0-.11,0-.21,0-.31,0-.51,0-1.03,0-1.54,0-.48,.29-.75,.76-.75,.44,0,.89,0,1.33,0,.44,0,.72,.27,.74,.71,.01,.37,0,.73,0,1.1,0,.26,0,.53,0,.79h4.84c0-.6,0-1.18,0-1.76,0-.6,.25-.85,.85-.85,1.02,0,2.04,0,3.05,0,.09,0,.24-.04,.26-.11,.12-.28,.21-.58,.31-.89h-5.49c0,.12,0,.23,0,.33,0,.5,0,1.01,0,1.51-.01,.52-.26,.76-.77,.76-.4,0-.79,0-1.19,0-.63,0-.85-.23-.85-.86,0-.58,0-1.16,0-1.74h-4.86c0,.34,0,.65,0,.97,0,.32,0,.63,0,.95,0,.37-.25,.66-.61,.67-.52,.02-1.05,.01-1.57,0-.31,0-.56-.24-.6-.55-.02-.16-.02-.31-.02-.47,0-.52,0-1.04,0-1.59-.14,0-.25,0-.36,0-.6,0-1.21,0-1.81,0-.35,0-.54-.17-.54-.45,0-.28,.17-.45,.51-.45,.72,0,1.44-.02,2.16,0,.58,.02,.94,.41,.94,1,0,.21,0,.41,0,.62,0,.33,0,.66,0,.99h1.01c0-.56,0-1.09,0-1.62,0-.57,.35-.98,.92-.98,1.6-.02,3.2-.02,4.8,0,.57,0,.92,.41,.92,.98,0,.54,0,1.08,0,1.64h1.01Zm-14.38,.2c0,.05,.01,.1,.03,.15,.6,1.71,1.2,3.42,1.79,5.13,.08,.22,.21,.26,.42,.26,3.67,0,7.33,0,11,0,.13,0,.26,0,.38,.02,.21,.03,.33,.17,.35,.38,.02,.22-.07,.39-.29,.46-.12,.04-.25,.04-.38,.04-3.44,0-6.88,0-10.31,0h-.41c.72,.69,1.51,1.01,2.41,1.01,3.37,.01,6.74,0,10.11,0,.56,0,1.1-.13,1.59-.4,.27-.15,.52-.35,.78-.53-.01-.03-.03-.05-.04-.08-.28,0-.57,0-.85,0-.3,0-.59,0-.89,0-.39,0-.62-.31-.49-.62,.1-.24,.3-.29,.53-.29,.67,0,1.35-.03,2.01,.01,.36,.02,.5-.12,.6-.43,.55-1.61,1.12-3.22,1.68-4.83,.03-.09,.06-.18,.09-.28h-2.86s-.03,.05-.03,.07c0,.52,0,1.05,0,1.57,0,.57-.37,.98-.93,.99-1.6,.02-3.2,.02-4.8,0-.55,0-.91-.4-.93-.95-.02-.45,0-.91,0-1.36,0-.1-.01-.21-.02-.31h-.96s-.02,.06-.02,.08c0,.49,0,.99,0,1.48,0,.71-.38,1.07-1.09,1.07-1.49,0-2.98,0-4.48,0-.72,0-1.1-.38-1.1-1.09,0-.51,0-1.02,0-1.54h-2.88Z"/>
        </g>
      </g>
      <g>
        <text class="cls-156" transform="translate(890.53 223.27)"><tspan x="0" y="0">HER</tspan><tspan class="cls-56" x="19.14" y="0">R</tspan><tspan x="25.04" y="0">AMIEN</tspan><tspan class="cls-211" x="56.01" y="0">T</tspan><tspan class="cls-226" x="61.14" y="0">A</tspan><tspan x="67.69" y="0">S Y</tspan><tspan class="cls-80" x="4.6" y="11.04">C</tspan><tspan x="10.14" y="11.04">ON</tspan><tspan class="cls-115" x="24.44" y="11.04">S</tspan><tspan class="cls-191" x="29.45" y="11.04">T</tspan><tspan class="cls-179" x="35.37" y="11.04">R</tspan><tspan x="41.49" y="11.04">U</tspan><tspan class="cls-80" x="48.37" y="11.04">C</tspan><tspan class="cls-191" x="53.92" y="11.04">CIÓN</tspan></text>
        <g>
          <circle class="cls-8" cx="929.66" cy="174.14" r="30.95"/>
          <g>
            <path class="cls-11" d="M926.65,174.22c-.61-.6-1.23-1.21-1.86-1.81-.05-.05-.2-.03-.29,0-2.25,.74-4.25,.3-5.99-1.28-1.75-1.59-2.32-4.31-1.4-6.49,.19-.46,.56-.53,.91-.18,.88,.88,1.75,1.76,2.62,2.64,.09,.09,.17,.19,.24,.27,.57-.55,1.1-1.08,1.66-1.62-.06-.07-.13-.15-.21-.22-.92-.92-1.83-1.84-2.75-2.76-.44-.44-.4-.74,.17-1.04,3.4-1.79,7.64,.24,8.41,4.02,.22,1.09,.16,2.16-.22,3.21-.03,.09-.03,.25,.03,.31,.59,.61,1.2,1.2,1.82,1.81,.05-.04,.12-.09,.17-.14,1.2-1.2,2.41-2.39,3.58-3.62,.33-.35,.59-.81,.77-1.26,.3-.76,.05-1.43-.54-1.97-.79-.74-1.77-1.14-2.78-1.46-.27-.08-.54-.15-.81-.22-.23-.05-.38-.17-.43-.4-.05-.24,.08-.4,.26-.53,.79-.57,1.66-.94,2.61-1.13,1.44-.28,2.83-.11,4.13,.54,1.97,.99,3.56,2.38,4.48,4.43,.17,.37,.22,.78,.34,1.17,.03,.1,.11,.22,.21,.27,.46,.23,.94,.44,1.41,.66,.98,.46,1.15,1.39,.4,2.16-.59,.61-1.19,1.21-1.8,1.8-.73,.72-1.66,.55-2.1-.37-.24-.49-.45-1-.68-1.5-.25-.55-.65-.8-1.26-.71-.75,.11-1.42,.4-1.96,.93-1.24,1.21-2.47,2.42-3.76,3.68,.18,.15,.3,.24,.41,.35,3.17,3.18,6.34,6.38,9.51,9.56,1.35,1.35,.61,3.26-.86,3.75-.86,.29-1.62,.06-2.25-.57-1.83-1.83-3.64-3.67-5.47-5.5-1.46-1.46-2.94-2.9-4.46-4.39-.23,.24-.49,.52-.76,.79-.6,.61-1.22,1.21-1.81,1.83-.09,.09-.15,.26-.14,.39,.02,.36-.09,.66-.35,.92-2.36,2.37-4.72,4.75-7.08,7.12-.5,.5-1.09,.5-1.59,.01-.53-.52-1.05-1.04-1.56-1.57-.49-.5-.48-1.09,.02-1.59,2.34-2.36,4.69-4.72,7.03-7.08,.27-.27,.58-.4,.97-.38,.1,0,.25-.02,.32-.09,.88-.87,1.75-1.75,2.62-2.63,.02-.02,.03-.05,.08-.13Zm-6.1-11.8c1.01,1,1.97,1.94,2.93,2.89,.34,.34,.34,.55,0,.89-.7,.7-1.39,1.4-2.09,2.11-.36,.37-.57,.36-.93,0-.82-.82-1.63-1.64-2.45-2.46-.06-.06-.13-.11-.21-.18-.19,.63-.2,1.24-.12,1.84,.47,3.35,3.91,5.18,6.83,3.86,.3-.14,.52-.08,.75,.15,.61,.63,1.24,1.25,1.86,1.87,.07,.07,.14,.13,.21,.2-.01-.03-.03-.06-.04-.09,.58-.57,1.16-1.14,1.78-1.74-.65-.64-1.33-1.3-1.99-1.95-.35-.34-.36-.43-.18-.87,.94-2.23,.19-4.77-1.84-6.07-1.39-.9-2.88-1.03-4.51-.42Zm10.82,11.81c-.53,.53-1.11,1.1-1.74,1.72,.08,.06,.17,.11,.24,.18,1.5,1.51,3,3.02,4.5,4.52,1.71,1.72,3.42,3.44,5.13,5.16,.3,.3,.65,.47,1.07,.4,.52-.09,.87-.41,1.03-.89,.17-.49,.02-.92-.35-1.28-1.52-1.53-3.04-3.06-4.57-4.58-1.77-1.75-3.55-3.48-5.33-5.23Zm4.39-5.7c.72-.41,1.48-.75,2.35-.67,.76,.07,1.4,.36,1.72,1.13,.22,.52,.46,1.04,.7,1.55,.18,.39,.32,.41,.61,.12,.57-.57,1.14-1.14,1.71-1.72,.32-.32,.3-.46-.12-.65-.59-.27-1.18-.54-1.77-.8-.24-.11-.36-.28-.36-.56,0-.23-.04-.46-.09-.68-.2-.84-.65-1.54-1.21-2.17-1.36-1.51-2.93-2.68-5.04-2.86-.96-.08-1.88,.12-2.8,.53,.14,.05,.23,.08,.32,.11,.92,.34,1.81,.75,2.54,1.42,.8,.73,1.27,1.61,1.01,2.71-.12,.52-.39,1.01-.59,1.53,.31,.3,.66,.64,1.03,1Zm-10.51,11.3c-.63-.62-1.21-1.19-1.72-1.7-2.42,2.38-4.87,4.78-7.31,7.18,.61,.59,1.19,1.16,1.72,1.69,2.42-2.37,4.86-4.77,7.31-7.17Zm8.83-11.47c-3.16,3.11-6.33,6.22-9.47,9.3,.35,.34,.66,.65,.86,.85,3.14-3.08,6.31-6.19,9.48-9.31-.33-.32-.63-.61-.87-.84Z"/>
            <path class="cls-11" d="M924.4,167.01c.28,0,.48,.22,.47,.5-.01,.27-.21,.46-.49,.45-.28,0-.48-.21-.47-.5,.01-.27,.22-.46,.49-.46Z"/>
            <path class="cls-11" d="M925.71,166.63c0,.28-.21,.5-.48,.5-.25,0-.47-.22-.48-.47,0-.28,.2-.48,.49-.48,.28,0,.47,.19,.47,.46Z"/>
            <path class="cls-11" d="M924.03,168.35c0,.26-.23,.5-.5,.49-.26,0-.46-.22-.47-.48,0-.28,.21-.49,.49-.49,.26,0,.47,.23,.47,.48Z"/>
            <path class="cls-11" d="M922.7,168.73c.27,0,.48,.2,.49,.46,0,.25-.24,.5-.49,.5-.27,0-.48-.23-.48-.5,0-.27,.21-.46,.48-.46Z"/>
            <path class="cls-11" d="M922.33,170.07c0,.27-.24,.48-.51,.47-.26-.01-.47-.24-.46-.49,0-.27,.23-.48,.51-.46,.26,.01,.47,.23,.46,.48Z"/>
            <path class="cls-11" d="M938.86,164.44c-.1,.13-.18,.32-.32,.37-.15,.06-.39,.04-.52-.05-.42-.32-.8-.68-1.19-1.04-.2-.19-.21-.44-.05-.64,.16-.21,.42-.27,.63-.1,.44,.36,.86,.74,1.27,1.12,.07,.07,.09,.19,.16,.34Z"/>
            <path class="cls-11" d="M935.88,163.12c-.38-.15-.69-.24-.96-.39-.21-.12-.27-.34-.16-.58,.11-.22,.29-.34,.54-.28,.27,.07,.53,.17,.78,.29,.24,.12,.32,.36,.21,.58-.08,.16-.28,.26-.41,.37Z"/>
          </g>
        </g>
      </g>
      <g>
        <text class="cls-156" transform="translate(441.61 223.27)"><tspan x="0" y="0">OFICIOS Y </tspan><tspan x="-14.54" y="11.04">P</tspan><tspan class="cls-93" x="-8.48" y="11.04">R</tspan><tspan x="-2.46" y="11.04">OFESIONALES</tspan></text>
        <g>
          <circle class="cls-8" cx="467.08" cy="174.14" r="30.95"/>
          <g>
            <path class="cls-11" d="M455.98,173.88c.13,.09,.28,.16,.39,.27,1.98,1.97,3.96,3.95,5.94,5.93,.61,.61,.83,1.34,.59,2.18-.23,.82-.79,1.34-1.61,1.52-.81,.18-1.5-.07-2.08-.66-1.97-1.97-3.94-3.94-5.9-5.91-.11-.11-.19-.25-.29-.37-.06,0-.12,.02-.19,.02-.08,.23-.22,.46-.22,.7,0,.97-.4,1.67-1.28,2.07-.8,.36-1.68,.15-2.37-.54-.68-.67-1.35-1.34-2.02-2.02-.68-.69-.89-1.57-.53-2.37,.39-.86,1.08-1.29,2.03-1.26,.28,0,.48-.07,.68-.28,1.07-1.09,2.16-2.16,3.23-3.26,.14-.14,.24-.39,.24-.59,0-.97,.4-1.67,1.28-2.07,.81-.37,1.69-.16,2.4,.55,.67,.66,1.33,1.32,1.99,1.99,.68,.69,.9,1.57,.54,2.37-.4,.88-1.1,1.29-2.07,1.28-.23,0-.46,.12-.68,.19l-.06,.24Zm-2.04,2.03c.45,.43,.9,.86,1.34,1.29,1.63,1.62,3.24,3.25,4.88,4.85,.2,.2,.56,.35,.82,.32,.21-.02,.53-.33,.56-.55,.04-.26-.11-.63-.3-.82-1.99-2.03-4.01-4.03-6.02-6.04-.06-.06-.13-.11-.17-.14-.36,.35-.7,.68-1.11,1.09Zm-2.08-.15c1.03-1.01,2.08-2.05,3.08-3.04-.54-.55-1.11-1.11-1.61-1.62-1.03,1.01-2.08,2.04-3.08,3.03,.55,.55,1.11,1.12,1.61,1.62Zm4.65-3.72c.5,.02,.81-.05,.97-.41,.15-.35,0-.63-.25-.88-.67-.66-1.32-1.32-1.99-1.98-.36-.35-.78-.37-1.06-.07-.28,.29-.28,.89,0,1.17,.66,.66,1.32,1.33,1.99,1.98,.12,.12,.3,.17,.34,.19Zm-7.96,2.71c-.39,.05-.71,.14-.86,.5-.15,.36,.02,.63,.27,.88,.66,.64,1.3,1.3,1.96,1.95,.36,.36,.77,.39,1.06,.1,.3-.29,.3-.91,0-1.2-.65-.65-1.3-1.31-1.96-1.95-.13-.13-.32-.19-.48-.28Z"/>
            <path class="cls-11" d="M487.92,175.53c0,2.47,0,4.93,0,7.4,0,.69-.21,.9-.9,.9-4.95,0-9.89,0-14.84,0-.36,0-.67-.05-.82-.42-.16-.38,.01-.65,.28-.92,4.99-4.98,9.98-9.97,14.96-14.96,.27-.27,.54-.43,.92-.27,.36,.16,.41,.47,.41,.82,0,2.48,0,4.96,0,7.44Zm-1.41-5.75c-4.21,4.21-8.44,8.44-12.64,12.64h12.64v-1.35c-.23-.01-.44-.03-.65-.04v-1.35c.23-.01,.43-.02,.64-.03v-2.07h-.64v-1.36c.23-.01,.44-.03,.63-.04v-2.04c-.23-.01-.43-.02-.63-.03v-1.38h.64v-2.96Z"/>
            <path class="cls-11" d="M466.47,183.81h-1.39v-9.66h-1.36v-1.39h.91c-.28-.57-.52-1.09-.79-1.6-.18-.34-.18-.64,0-.98,.88-1.73,1.74-3.47,2.61-5.21,.15-.3,.33-.54,.71-.54,.38,0,.56,.23,.71,.54,.86,1.74,1.73,3.48,2.61,5.22,.17,.34,.17,.65,0,.98-.26,.49-.5,1-.78,1.56h.9v1.39h-1.34v9.68h-1.39v-9.64h-1.38v9.65Zm-.01-15.53l-.09-.02c-.28,.56-.53,1.15-.86,1.68-.32,.51-.34,.95,0,1.46,.28,.42,.37,1.06,.74,1.28,.39,.23,1.01,.05,1.52,.08,.24,.01,.36-.06,.46-.28,.24-.52,.51-1.03,.76-1.55,.05-.1,.12-.24,.09-.31-.38-.79-.78-1.58-1.17-2.37-.03,0-.06,.02-.09,.03v2.36h-1.37v-2.36Z"/>
            <path class="cls-11" d="M481.3,181.06c-.76,0-1.53,0-2.29,0-.34,0-.6-.11-.73-.43-.13-.31-.04-.58,.2-.82,1.58-1.58,3.16-3.16,4.74-4.74,.24-.24,.51-.32,.82-.18,.3,.13,.41,.37,.41,.69,0,1.57,0,3.14,0,4.72,0,.51-.25,.76-.78,.76-.79,0-1.59,0-2.38,0Zm1.76-3.61c-.73,.73-1.5,1.5-2.2,2.2h2.2v-2.2Z"/>
          </g>
        </g>
      </g>
    </g>
    <rect class="cls-41" x="966.63" y=".5" width="83.73" height="247.99"/>
  </g>
  <path class="cls-40" d="M574.6,758.15c46.22,46.22,74.81,110.08,74.81,180.61"/>
  <path class="cls-16" d="M649.42,938.77c0,141.07-114.36,255.43-255.43,255.43"/>
  <path class="cls-43" d="M393.99,1194.2c-141.07,0-255.43-114.36-255.43-255.43s114.36-255.43,255.43-255.43"/>
  <text class="cls-66" transform="translate(941.33 881.91)"><tspan class="cls-173"><tspan class="cls-6" x="0" y="0">#</tspan><tspan class="cls-84" x="16.41" y="0">2</tspan><tspan class="cls-14" x="29.8" y="0">7</tspan><tspan class="cls-185" x="42.64" y="0">9</tspan><tspan class="cls-230" x="58.32" y="0">D</tspan><tspan class="cls-6" x="76.47" y="0">2E</tspan></tspan><tspan class="cls-173"><tspan class="cls-106" x="-68.3" y="34">R</tspan><tspan class="cls-154" x="-51.82" y="34">3</tspan><tspan class="cls-120" x="-37.13" y="34">9</tspan><tspan class="cls-230" x="-21.27" y="34">/</tspan><tspan class="cls-102" x="-11.36" y="34">G</tspan><tspan class="cls-154" x="7.96" y="34">1</tspan><tspan class="cls-57" x="20.96" y="34">5</tspan><tspan class="cls-6" x="34.76" y="34">7/</tspan><tspan class="cls-218" x="58.06" y="34">B</tspan><tspan class="cls-14" x="75.37" y="34">4</tspan><tspan class="cls-6" x="89.91" y="34">6</tspan></tspan><tspan class="cls-173"><tspan class="cls-103" x="-104.41" y="68">C</tspan><tspan class="cls-142" x="-88.42" y="68">8</tspan><tspan class="cls-6" x="-72.54" y="68">0/M7</tspan><tspan class="cls-51" x="-9.77" y="68">/</tspan><tspan class="cls-7" x="1.25" y="68">Y</tspan><tspan class="cls-69" x="16.9" y="68">1</tspan><tspan class="cls-142" x="29.54" y="68">0</tspan><tspan class="cls-6" x="46.05" y="68">0/</tspan><tspan class="cls-146" x="73.27" y="68">K</tspan><tspan class="cls-70" x="88.97" y="68">0</tspan></tspan><tspan class="cls-77"><tspan class="cls-209" x="-96.72" y="102">P</tspan><tspan class="cls-6" x="-82.65" y="102">AN</tspan><tspan class="cls-141" x="-47.19" y="102">T</tspan><tspan class="cls-142" x="-33.38" y="102">O</tspan><tspan class="cls-120" x="-14.3" y="102">NE </tspan><tspan class="cls-187" x="25.3" y="102">3</tspan><tspan class="cls-223" x="40.04" y="102">5</tspan><tspan class="cls-70" x="54.05" y="102">29 C</tspan></tspan></text>
  <text class="cls-66" transform="translate(1303.14 881.94)"><tspan class="cls-173"><tspan class="cls-6" x="0" y="0">#</tspan><tspan class="cls-230" x="16.41" y="0">3</tspan><tspan class="cls-122" x="30.65" y="0">C</tspan><tspan class="cls-149" x="47.01" y="0">3</tspan><tspan class="cls-122" x="61.26" y="0">C</tspan><tspan class="cls-120" x="77.61" y="0">3B</tspan></tspan><tspan class="cls-173"><tspan class="cls-76" x="-58.08" y="34">R</tspan><tspan class="cls-183" x="-41.81" y="34">6</tspan><tspan class="cls-6" x="-26.1" y="34">0</tspan><tspan class="cls-230" x="-9.31" y="34">/</tspan><tspan class="cls-6" x=".6" y="34">G</tspan><tspan class="cls-183" x="19.4" y="34">6</tspan><tspan class="cls-6" x="35.1" y="34">0/B</tspan><tspan class="cls-14" x="79.27" y="34">5</tspan><tspan class="cls-6" x="93.47" y="34">9</tspan></tspan><tspan class="cls-173"><tspan class="cls-202" x="-74.62" y="68">C</tspan><tspan class="cls-6" x="-58.78" y="68">0/M0</tspan><tspan class="cls-51" x="7.91" y="68">/</tspan><tspan class="cls-139" x="18.93" y="68">Y</tspan><tspan class="cls-6" x="33.77" y="68">0/</tspan><tspan class="cls-149" x="61" y="68">K</tspan><tspan class="cls-227" x="76.96" y="68">9</tspan><tspan class="cls-70" x="92.53" y="68">0</tspan></tspan><tspan class="cls-77"><tspan class="cls-209" x="-132.24" y="102">P</tspan><tspan class="cls-6" x="-118.17" y="102">AN</tspan><tspan class="cls-141" x="-82.71" y="102">T</tspan><tspan class="cls-142" x="-68.9" y="102">O</tspan><tspan class="cls-120" x="-49.81" y="102">NE B</tspan><tspan class="cls-95" x="6.73" y="102">L</tspan><tspan class="cls-138" x="20.12" y="102">A</tspan><tspan class="cls-185" x="36.06" y="102">C</tspan><tspan class="cls-6" x="52.73" y="102">K 7 C</tspan></tspan></text>
  <text class="cls-66" transform="translate(1637.85 881.99)"><tspan class="cls-173"><tspan class="cls-6" x="0" y="0">#25</tspan><tspan class="cls-62" x="44.43" y="0">B</tspan><tspan class="cls-6" x="61.75" y="0">4BD</tspan></tspan><tspan class="cls-173"><tspan class="cls-106" x="-78.65" y="34">R</tspan><tspan class="cls-213" x="-62.17" y="34">3</tspan><tspan class="cls-120" x="-48.18" y="34">7</tspan><tspan class="cls-230" x="-35.31" y="34">/</tspan><tspan class="cls-102" x="-25.4" y="34">G</tspan><tspan class="cls-203" x="-6.08" y="34">1</tspan><tspan class="cls-142" x="6.73" y="34">8</tspan><tspan class="cls-6" x="22.62" y="34">0/</tspan><tspan class="cls-62" x="49.84" y="34">B</tspan><tspan class="cls-203" x="67.16" y="34">1</tspan><tspan class="cls-154" x="79.98" y="34">8</tspan><tspan class="cls-120" x="96.07" y="34">9</tspan></tspan><tspan class="cls-173"><tspan class="cls-151" x="-84.55" y="68">C</tspan><tspan class="cls-142" x="-68.04" y="68">7</tspan><tspan class="cls-6" x="-55.46" y="68">0/M0</tspan><tspan class="cls-51" x="11.23" y="68">/</tspan><tspan class="cls-6" x="22.26" y="68">Y</tspan><tspan class="cls-142" x="37.73" y="68">3</tspan><tspan class="cls-6" x="52.21" y="68">0/</tspan><tspan class="cls-213" x="79.43" y="68">K</tspan><tspan class="cls-6" x="95.13" y="68">0</tspan></tspan><tspan class="cls-77"><tspan class="cls-209" x="-75.76" y="102">P</tspan><tspan class="cls-6" x="-61.7" y="102">AN</tspan><tspan class="cls-141" x="-26.23" y="102">T</tspan><tspan class="cls-142" x="-12.43" y="102">O</tspan><tspan class="cls-120" x="6.66" y="102">NE </tspan><tspan class="cls-3" x="46.25" y="102">6</tspan><tspan class="cls-6" x="62.04" y="102">31 C</tspan></tspan></text>
  <g>
    <path class="cls-17" d="M950.88,811.61c-24.44,0-46.56-9.91-62.58-25.92"/>
    <path class="cls-21" d="M862.38,723.11c0-24.44,9.91-46.56,25.92-62.58"/>
    <path class="cls-36" d="M888.3,785.69c-16.01-16.01-25.92-38.14-25.92-62.58"/>
    <path class="cls-27" d="M888.3,660.53c16.01-16.01,38.14-25.92,62.58-25.92"/>
    <path class="cls-47" d="M1013.45,785.69c-16.01,16.01-38.14,25.92-62.58,25.92"/>
    <path class="cls-46" d="M1039.37,723.11c0,24.44-9.91,46.56-25.92,62.58"/>
    <path class="cls-29" d="M950.88,634.61c48.87,0,88.5,39.62,88.5,88.5"/>
    <circle class="cls-81" cx="951.03" cy="723.11" r="80.32" transform="translate(-232.77 884.28) rotate(-45)"/>
  </g>
  <g>
    <path class="cls-38" d="M1316.65,811.61c-24.44,0-46.56-9.91-62.58-25.92"/>
    <path class="cls-24" d="M1228.15,723.11c0-24.44,9.91-46.56,25.92-62.58"/>
    <path class="cls-42" d="M1254.07,785.69c-16.01-16.01-25.92-38.14-25.92-62.58"/>
    <path class="cls-27" d="M1254.07,660.53c16.01-16.01,38.14-25.92,62.58-25.92"/>
    <path class="cls-18" d="M1379.22,785.69c-16.01,16.01-38.14,25.92-62.58,25.92"/>
    <path class="cls-34" d="M1405.14,723.11c0,24.44-9.91,46.56-25.92,62.58"/>
    <path class="cls-37" d="M1316.65,634.61c48.87,0,88.5,39.62,88.5,88.5"/>
    <circle class="cls-157" cx="1316.81" cy="723.11" r="80.32" transform="translate(-125.64 1142.92) rotate(-45)"/>
  </g>
  <g>
    <path class="cls-35" d="M1653.31,811.61c-24.44,0-46.56-9.91-62.58-25.92"/>
    <path class="cls-44" d="M1564.81,723.11c0-24.44,9.91-46.56,25.92-62.58"/>
    <path class="cls-19" d="M1590.73,785.69c-16.01-16.01-25.92-38.14-25.92-62.58"/>
    <path class="cls-27" d="M1590.73,660.53c16.01-16.01,38.14-25.92,62.58-25.92"/>
    <path class="cls-31" d="M1715.88,785.69c-16.01,16.01-38.14,25.92-62.58,25.92"/>
    <path class="cls-26" d="M1741.8,723.11c0,24.44-9.91,46.56-25.92,62.58"/>
    <path class="cls-23" d="M1653.31,634.61c48.87,0,88.5,39.62,88.5,88.5"/>
    <circle class="cls-8" cx="1653.46" cy="723.11" r="80.32" transform="translate(-27.03 1380.97) rotate(-45)"/>
  </g>
  <rect class="cls-158" x="6" y="323.75" width="1920" height="114.95"/>
  <rect class="cls-158" y="1375.68" width="1926" height="28.07"/>
  <line class="cls-45" x1="6" y1="544.73" x2="489.74" y2="544.73"/>
  <text class="cls-155" transform="translate(219.69 527.75)"><tspan class="cls-229" x="0" y="0">C</tspan><tspan class="cls-214" x="17.95" y="0">ol</tspan><tspan class="cls-165" x="44.69" y="0">o</tspan><tspan class="cls-200" x="63.1" y="0">r</tspan><tspan class="cls-9" x="75.14" y="0">e</tspan><tspan class="cls-52" x="92.83" y="0">s </tspan><tspan class="cls-188" x="114" y="0">p</tspan><tspan class="cls-105" x="133.05" y="0">r</tspan><tspan class="cls-61" x="145.35" y="0">i</tspan><tspan class="cls-190" x="153.79" y="0">nc</tspan><tspan class="cls-61" x="188.15" y="0">i</tspan><tspan class="cls-127" x="196.59" y="0">p</tspan><tspan class="cls-52" x="215.73" y="0">a</tspan><tspan class="cls-180" x="232.99" y="0">l</tspan><tspan class="cls-166" x="241.19" y="0">e</tspan><tspan class="cls-52" x="258.88" y="0">s</tspan></text>
  <text class="cls-78" transform="translate(1826.83 1134.56) rotate(-90)"><tspan class="cls-128" x="0" y="0">P</tspan><tspan class="cls-208" x="12.08" y="0">i</tspan><tspan class="cls-147" x="17.29" y="0">n</tspan><tspan class="cls-178" x="29.05" y="0">t</tspan><tspan class="cls-177" x="36.82" y="0">u</tspan><tspan class="cls-220" x="48.96" y="0">r</tspan><tspan class="cls-177" x="56.75" y="0">a</tspan></text>
  <text class="cls-78" transform="translate(1826.83 1303.96) rotate(-90)"><tspan class="cls-208" x="0" y="0">Vini</tspan><tspan class="cls-86" x="34.9" y="0">l</tspan><tspan class="cls-177" x="39.94" y="0">o </tspan><tspan class="cls-128" x="55.92" y="0">d</tspan><tspan class="cls-177" x="68.34" y="0">e</tspan><tspan class="cls-171" x="15.58" y="20.29">c</tspan><tspan class="cls-220" x="25.59" y="20.29">o</tspan><tspan class="cls-98" x="37.56" y="20.29">r</tspan><tspan class="cls-59" x="45.45" y="20.29">t</tspan><tspan class="cls-177" x="52.76" y="20.29">e</tspan></text>
  <text class="cls-79" transform="translate(993.6 1047.42)"><tspan class="cls-90"><tspan class="cls-221" x="0" y="0">A</tspan><tspan class="cls-198" x="13.84" y="0">L</tspan><tspan class="cls-201" x="24.7" y="0">B</tspan><tspan class="cls-221" x="38.32" y="0">A</tspan></tspan><tspan class="cls-65"><tspan class="cls-60" x="-67.98" y="30">4</tspan><tspan class="cls-75" x="-56.51" y="30">3</tspan><tspan class="cls-112" x="-45.23" y="30">G</tspan><tspan class="cls-221" x="-30.68" y="30">Y </tspan><tspan class="cls-193" x="-14.45" y="30">2</tspan><tspan class="cls-49" x="-3.66" y="30">4/</tspan><tspan class="cls-231" x="16.06" y="30">5</tspan><tspan class="cls-125" x="27.13" y="30">6</tspan><tspan class="cls-221" x="39.58" y="30">6</tspan></tspan><tspan class="cls-65"><tspan class="cls-217" x="-123.73" y="60">&quot;</tspan><tspan class="cls-49" x="-117.79" y="60">V</tspan><tspan class="cls-72" x="-105.21" y="60">E</tspan><tspan class="cls-221" x="-93.01" y="60">R</tspan><tspan class="cls-15" x="-79.66" y="60">D</tspan><tspan class="cls-221" x="-65.04" y="60">E IR</tspan><tspan class="cls-63" x="-30.41" y="60">L</tspan><tspan class="cls-221" x="-19.83" y="60">AN</tspan><tspan class="cls-15" x="8.35" y="60">D</tspan><tspan class="cls-231" x="22.97" y="60">É</tspan><tspan class="cls-221" x="35.07" y="60">S&quot;</tspan></tspan><tspan class="cls-90"><tspan class="cls-221" x="-142.06" y="90">SHE</tspan><tspan class="cls-215" x="-102.44" y="90">R</tspan><tspan class="cls-204" x="-89.31" y="90">W</tspan><tspan class="cls-221" x="-69.59" y="90">IN </tspan><tspan class="cls-181" x="-45.03" y="90">W</tspan><tspan class="cls-49" x="-25.31" y="90">I</tspan><tspan class="cls-48" x="-19.62" y="90">LL</tspan><tspan class="cls-49" x="2.1" y="90">IA</tspan><tspan class="cls-193" x="21.63" y="90">M</tspan><tspan class="cls-49" x="39.96" y="90">S</tspan></tspan><tspan class="cls-65"><tspan class="cls-176" x="-185.89" y="120">S</tspan><tspan class="cls-49" x="-174.15" y="120">W </tspan><tspan class="cls-193" x="-150.88" y="120">6</tspan><tspan class="cls-87" x="-138.43" y="120">9</tspan><tspan class="cls-193" x="-126.06" y="120">2</tspan><tspan class="cls-49" x="-115.27" y="120">4 </tspan><tspan class="cls-117" x="-99.77" y="120">&quot;</tspan><tspan class="cls-15" x="-94.46" y="120">D</tspan><tspan class="cls-221" x="-79.84" y="120">IR</tspan><tspan class="cls-169" x="-61.47" y="120">E</tspan><tspan class="cls-74" x="-49.81" y="120">C</tspan><tspan class="cls-221" x="-36.48" y="120">T GR</tspan><tspan class="cls-111" x="7.41" y="120">EE</tspan><tspan class="cls-129" x="31.81" y="120">N</tspan><tspan class="cls-221" x="46.91" y="120">&quot;</tspan></tspan><tspan class="cls-90"><tspan class="cls-109" x="-27.93" y="180">O</tspan><tspan class="cls-49" x="-12.6" y="180">R</tspan><tspan class="cls-96" x="1.15" y="180">A</tspan><tspan class="cls-109" x="14.4" y="180">C</tspan><tspan class="cls-49" x="27.51" y="180">AL</tspan></tspan><tspan class="cls-65"><tspan class="cls-135" x="-150.95" y="210">0</tspan><tspan class="cls-167" x="-137.84" y="210">6</tspan><tspan class="cls-221" x="-125.14" y="210">4 </tspan><tspan class="cls-99" x="-109.64" y="210">&quot;</tspan><tspan class="cls-168" x="-103.7" y="210">Y</tspan><tspan class="cls-111" x="-91.58" y="210">E</tspan><tspan class="cls-221" x="-79.38" y="210">L</tspan><tspan class="cls-212" x="-68.86" y="210">L</tspan><tspan class="cls-140" x="-59.16" y="210">O</tspan><tspan class="cls-221" x="-44.16" y="210">W GR</tspan><tspan class="cls-72" x="7.41" y="210">EE</tspan><tspan class="cls-117" x="31.81" y="210">N</tspan><tspan class="cls-221" x="46.91" y="210">&quot;</tspan></tspan><tspan class="cls-90"><tspan class="cls-221" x="-17.3" y="240">M</tspan><tspan class="cls-206" x="1.15" y="240">A</tspan><tspan class="cls-109" x="14.4" y="240">C</tspan><tspan class="cls-221" x="27.51" y="240">AL</tspan></tspan><tspan class="cls-65"><tspan class="cls-130" x="-228.82" y="270">8</tspan><tspan class="cls-225" x="-216.28" y="270">3</tspan><tspan class="cls-60" x="-204.48" y="270">4</tspan><tspan class="cls-221" x="-193.01" y="270">9</tspan><tspan class="cls-172" x="-180.43" y="270">-</tspan><tspan class="cls-221" x="-173.06" y="270">31 </tspan><tspan class="cls-162" x="-147.06" y="270">P</tspan><tspan class="cls-163" x="-134.82" y="270">R</tspan><tspan class="cls-221" x="-121.78" y="270">O </tspan><tspan class="cls-108" x="-102.4" y="270">&quot;</tspan><tspan class="cls-181" x="-97.06" y="270">S</tspan><tspan class="cls-107" x="-85.24" y="270">P</tspan><tspan class="cls-49" x="-73" y="270">RI</tspan><tspan class="cls-135" x="-54.62" y="270">N</tspan><tspan class="cls-49" x="-39.82" y="270">G GR</tspan><tspan class="cls-72" x="7.41" y="270">EE</tspan><tspan class="cls-117" x="31.81" y="270">N</tspan><tspan class="cls-221" x="46.91" y="270">&quot;</tspan></tspan></text>
  <text class="cls-79" transform="translate(1360.68 1047.42)"><tspan class="cls-90"><tspan class="cls-221" x="0" y="0">A</tspan><tspan class="cls-198" x="13.84" y="0">L</tspan><tspan class="cls-201" x="24.7" y="0">B</tspan><tspan class="cls-221" x="38.32" y="0">A</tspan></tspan><tspan class="cls-65"><tspan class="cls-72" x="-74.59" y="30">0</tspan><tspan class="cls-121" x="-61.34" y="30">9</tspan><tspan class="cls-221" x="-48.91" y="30">BB </tspan><tspan class="cls-97" x="-18.02" y="30">0</tspan><tspan class="cls-49" x="-5.33" y="30">7/</tspan><tspan class="cls-135" x="13.02" y="30">0</tspan><tspan class="cls-125" x="26.12" y="30">0</tspan><tspan class="cls-221" x="39.33" y="30">8</tspan></tspan><tspan class="cls-65"><tspan class="cls-231" x="-160.55" y="60">&quot;</tspan><tspan class="cls-118" x="-155.49" y="60">O</tspan><tspan class="cls-231" x="-140.39" y="60">S</tspan><tspan class="cls-109" x="-128.73" y="60">C</tspan><tspan class="cls-49" x="-115.56" y="60">URI</tspan><tspan class="cls-82" x="-83.16" y="60">D</tspan><tspan class="cls-221" x="-68.82" y="60">AD </tspan><tspan class="cls-168" x="-36.86" y="60">C</tspan><tspan class="cls-111" x="-23.63" y="60">E</tspan><tspan class="cls-221" x="-11.42" y="60">L</tspan><tspan class="cls-231" x="-.9" y="60">E</tspan><tspan class="cls-135" x="11.19" y="60">S</tspan><tspan class="cls-60" x="22.81" y="60">T</tspan><tspan class="cls-144" x="34.36" y="60">E</tspan><tspan class="cls-49" x="46.91" y="60">&quot;</tspan></tspan><tspan class="cls-90"><tspan class="cls-221" x="-142.06" y="90">SHE</tspan><tspan class="cls-215" x="-102.44" y="90">R</tspan><tspan class="cls-204" x="-89.31" y="90">W</tspan><tspan class="cls-221" x="-69.59" y="90">IN </tspan><tspan class="cls-181" x="-45.03" y="90">W</tspan><tspan class="cls-49" x="-25.31" y="90">I</tspan><tspan class="cls-48" x="-19.62" y="90">LL</tspan><tspan class="cls-49" x="2.1" y="90">IA</tspan><tspan class="cls-193" x="21.63" y="90">M</tspan><tspan class="cls-49" x="39.96" y="90">S</tspan></tspan><tspan class="cls-65"><tspan class="cls-176" x="-130.58" y="120">S</tspan><tspan class="cls-49" x="-118.84" y="120">W </tspan><tspan class="cls-193" x="-95.57" y="120">69</tspan><tspan class="cls-119" x="-70.67" y="120">8</tspan><tspan class="cls-49" x="-57.9" y="120">9 </tspan><tspan class="cls-129" x="-41.35" y="120">&quot;</tspan><tspan class="cls-87" x="-36.04" y="120">D</tspan><tspan class="cls-135" x="-21.4" y="120">O</tspan><tspan class="cls-221" x="-6.22" y="120">MI</tspan><tspan class="cls-67" x="16.88" y="120">N</tspan><tspan class="cls-231" x="31.69" y="120">O</tspan><tspan class="cls-49" x="46.91" y="120">&quot;</tspan></tspan><tspan class="cls-90"><tspan class="cls-109" x="-27.93" y="180">O</tspan><tspan class="cls-49" x="-12.6" y="180">R</tspan><tspan class="cls-96" x="1.15" y="180">A</tspan><tspan class="cls-109" x="14.4" y="180">C</tspan><tspan class="cls-49" x="27.51" y="180">AL</tspan></tspan><tspan class="cls-65"><tspan class="cls-170" x="-108.15" y="210">0</tspan><tspan class="cls-49" x="-95.46" y="210">73 </tspan><tspan class="cls-129" x="-69.63" y="210">&quot;</tspan><tspan class="cls-82" x="-64.32" y="210">D</tspan><tspan class="cls-49" x="-49.98" y="210">ARK GR</tspan><tspan class="cls-87" x="21.88" y="210">E</tspan><tspan class="cls-99" x="33.96" y="210">Y</tspan><tspan class="cls-221" x="46.91" y="210">&quot;</tspan></tspan><tspan class="cls-90"><tspan class="cls-221" x="-17.3" y="240">M</tspan><tspan class="cls-206" x="1.15" y="240">A</tspan><tspan class="cls-109" x="14.4" y="240">C</tspan><tspan class="cls-221" x="27.51" y="240">AL</tspan></tspan><tspan class="cls-65"><tspan class="cls-130" x="-199.08" y="270">8</tspan><tspan class="cls-15" x="-186.54" y="270">3</tspan><tspan class="cls-60" x="-175.08" y="270">8</tspan><tspan class="cls-221" x="-162.31" y="270">9</tspan><tspan class="cls-143" x="-149.73" y="270">-</tspan><tspan class="cls-109" x="-141.22" y="270">1</tspan><tspan class="cls-49" x="-131.1" y="270">8 </tspan><tspan class="cls-107" x="-114.3" y="270">P</tspan><tspan class="cls-118" x="-102.06" y="270">R</tspan><tspan class="cls-221" x="-89.02" y="270">O </tspan><tspan class="cls-63" x="-69.64" y="270">&quot;</tspan><tspan class="cls-82" x="-64.32" y="270">D</tspan><tspan class="cls-221" x="-49.98" y="270">ARK GR</tspan><tspan class="cls-87" x="21.88" y="270">E</tspan><tspan class="cls-217" x="33.96" y="270">Y</tspan><tspan class="cls-221" x="46.91" y="270">&quot;</tspan></tspan></text>
  <text class="cls-79" transform="translate(1694.94 1047.42)"><tspan class="cls-90"><tspan class="cls-221" x="0" y="0">A</tspan><tspan class="cls-198" x="13.84" y="0">L</tspan><tspan class="cls-201" x="24.7" y="0">B</tspan><tspan class="cls-221" x="38.32" y="0">A</tspan></tspan><tspan class="cls-65"><tspan class="cls-1" x="-66.68" y="30">1</tspan><tspan class="cls-49" x="-57.04" y="30">7</tspan><tspan class="cls-72" x="-46.87" y="30">B</tspan><tspan class="cls-221" x="-33.5" y="30">G </tspan><tspan class="cls-67" x="-14.57" y="30">3</tspan><tspan class="cls-49" x="-3.11" y="30">6/</tspan><tspan class="cls-130" x="17.66" y="30">33</tspan><tspan class="cls-221" x="40.47" y="30">3 </tspan></tspan><tspan class="cls-65"><tspan class="cls-2" x="-78.5" y="60">&quot;</tspan><tspan class="cls-129" x="-73.96" y="60">A</tspan><tspan class="cls-221" x="-60.75" y="60">ZUL BU</tspan><tspan class="cls-168" x="6.8" y="60">C</tspan><tspan class="cls-169" x="20.03" y="60">E</tspan><tspan class="cls-231" x="31.69" y="60">O</tspan><tspan class="cls-221" x="46.91" y="60">&quot;</tspan></tspan><tspan class="cls-90"><tspan class="cls-221" x="-142.06" y="90">SHE</tspan><tspan class="cls-215" x="-102.44" y="90">R</tspan><tspan class="cls-204" x="-89.31" y="90">W</tspan><tspan class="cls-221" x="-69.59" y="90">IN </tspan><tspan class="cls-181" x="-45.03" y="90">W</tspan><tspan class="cls-49" x="-25.31" y="90">I</tspan><tspan class="cls-48" x="-19.62" y="90">LL</tspan><tspan class="cls-49" x="2.1" y="90">IA</tspan><tspan class="cls-193" x="21.63" y="90">M</tspan><tspan class="cls-49" x="39.96" y="90">S</tspan></tspan><tspan class="cls-65"><tspan class="cls-176" x="-175.73" y="120">S</tspan><tspan class="cls-49" x="-163.99" y="120">W </tspan><tspan class="cls-201" x="-140.72" y="120">6</tspan><tspan class="cls-49" x="-128.31" y="120">7</tspan><tspan class="cls-113" x="-118.15" y="120">7</tspan><tspan class="cls-49" x="-108.53" y="120">4 </tspan><tspan class="cls-117" x="-93.03" y="120">&quot;</tspan><tspan class="cls-204" x="-87.72" y="120">F</tspan><tspan class="cls-221" x="-76.1" y="120">R</tspan><tspan class="cls-231" x="-62.75" y="120">E</tspan><tspan class="cls-68" x="-50.65" y="120">S</tspan><tspan class="cls-221" x="-38.83" y="120">H </tspan><tspan class="cls-64" x="-20.18" y="120">W</tspan><tspan class="cls-197" x="-2.02" y="120">A</tspan><tspan class="cls-60" x="9.72" y="120">T</tspan><tspan class="cls-111" x="21.27" y="120">E</tspan><tspan class="cls-152" x="33.47" y="120">R</tspan><tspan class="cls-49" x="46.91" y="120">&quot;</tspan></tspan><tspan class="cls-90"><tspan class="cls-109" x="-27.93" y="180">O</tspan><tspan class="cls-49" x="-12.6" y="180">R</tspan><tspan class="cls-96" x="1.15" y="180">A</tspan><tspan class="cls-109" x="14.4" y="180">C</tspan><tspan class="cls-49" x="27.51" y="180">AL</tspan></tspan><tspan class="cls-65"><tspan class="cls-176" x="-83.81" y="210">0</tspan><tspan class="cls-231" x="-70.58" y="210">5</tspan><tspan class="cls-221" x="-59.51" y="210">6 </tspan><tspan class="cls-63" x="-42.97" y="210">&quot;</tspan><tspan class="cls-67" x="-37.65" y="210">I</tspan><tspan class="cls-121" x="-32.87" y="210">C</tspan><tspan class="cls-221" x="-19.63" y="210">E B</tspan><tspan class="cls-107" x="10.08" y="210">L</tspan><tspan class="cls-221" x="20.33" y="210">U</tspan><tspan class="cls-114" x="34.36" y="210">E</tspan><tspan class="cls-221" x="46.91" y="210">&quot;</tspan></tspan><tspan class="cls-90"><tspan class="cls-221" x="-17.3" y="240">M</tspan><tspan class="cls-206" x="1.15" y="240">A</tspan><tspan class="cls-109" x="14.4" y="240">C</tspan><tspan class="cls-221" x="27.51" y="240">AL</tspan></tspan><tspan class="cls-65"><tspan class="cls-130" x="-179" y="270">83</tspan><tspan class="cls-60" x="-155.06" y="270">3</tspan><tspan class="cls-221" x="-143.43" y="270">9-04 </tspan><tspan class="cls-107" x="-94.17" y="270">P</tspan><tspan class="cls-118" x="-81.92" y="270">R</tspan><tspan class="cls-221" x="-68.88" y="270">O </tspan><tspan class="cls-108" x="-49.5" y="270">&quot;</tspan><tspan class="cls-68" x="-44.16" y="270">S</tspan><tspan class="cls-104" x="-32.34" y="270">K</tspan><tspan class="cls-49" x="-19.62" y="270">Y B</tspan><tspan class="cls-224" x="10.08" y="270">L</tspan><tspan class="cls-221" x="20.33" y="270">U</tspan><tspan class="cls-114" x="34.35" y="270">E</tspan><tspan class="cls-221" x="46.91" y="270">&quot;</tspan></tspan></text>
  <line class="cls-45" x1="1782.57" y1="1201.42" x2="1782.57" y2="1331.4"/>
  <line class="cls-45" x1="1782.57" y1="1022.97" x2="1782.57" y2="1183.87"/>
  <rect class="cls-186" x="756.76" y="1022.4" width="1025.81" height="161.47"/>
  <rect class="cls-186" x="756.76" y="1201.42" width="1025.81" height="129.98"/>
  <text class="cls-12" transform="translate(1560.3 377.8)"><tspan class="cls-160"><tspan class="cls-164" x="0" y="0">MAN</tspan><tspan class="cls-222" x="69.24" y="0">U</tspan><tspan class="cls-164" x="89.85" y="0">AL </tspan><tspan class="cls-145" x="131.31" y="0">D</tspan><tspan class="cls-164" x="152.73" y="0">E MA</tspan><tspan class="cls-150" x="223.41" y="0">R</tspan><tspan class="cls-210" x="243.18" y="0">C</tspan><tspan class="cls-164" x="262.2" y="0">A</tspan></tspan><tspan class="cls-65"><tspan class="cls-91" x="-108.84" y="34">P</tspan><tspan class="cls-85" x="-91.02" y="34">R</tspan><tspan class="cls-219" x="-72.06" y="34">O</tspan><tspan class="cls-126" x="-50.31" y="34">VI</tspan><tspan class="cls-133" x="-24.51" y="34">N</tspan><tspan class="cls-205" x="-3.03" y="34">C</tspan><tspan class="cls-164" x="16.2" y="34">IA M</tspan><tspan class="cls-145" x="74.97" y="34">I</tspan><tspan class="cls-58" x="82.14" y="34">C</tspan><tspan class="cls-85" x="101.37" y="34">R</tspan><tspan class="cls-132" x="120.33" y="34">O</tspan><tspan class="cls-53" x="142.38" y="34">C</tspan><tspan class="cls-164" x="161.61" y="34">R</tspan><tspan class="cls-55" x="181.02" y="34">É</tspan><tspan class="cls-133" x="198.78" y="34">D</tspan><tspan class="cls-126" x="219.99" y="34">I</tspan><tspan class="cls-184" x="227.49" y="34">T</tspan><tspan class="cls-85" x="243.42" y="34">O</tspan><tspan class="cls-126" x="265.32" y="34">S</tspan></tspan></text>
</svg>