<?xml version="1.0" encoding="UTF-8"?>
<svg id="Capa_2" data-name="Capa 2" xmlns="http://www.w3.org/2000/svg" viewBox="0 0 61.89 61.89">
  <defs>
    <style>
      .cls-1 {
        fill: #25b4bd;
      }

      .cls-2 {
        fill: #fff;
      }
    </style>
  </defs>
  <g id="Capa_1-2" data-name="Capa 1">
    <g>
      <circle class="cls-1" cx="30.95" cy="30.95" r="30.95"/>
      <path class="cls-2" d="M25.32,46.12c-.36-.11-.73-.18-1.07-.32-1.11-.47-1.94-1.25-2.34-2.38-1.17-3.26-2.34-6.53-3.42-9.82-.93-2.82,1.03-5.85,3.98-6.26,.65-.09,1.32-.01,2-.01v-8.74c-.27,0-.53,0-.8,0-.76,0-1.52,0-2.28,0-.72,0-1.07-.36-1.07-1.08,0-.26,0-.51,0-.77,.01-.61,.39-.97,.99-.97,2.83,0,5.65,0,8.48,0,3.58,0,7.15,0,10.73,0,.7,0,1.05,.35,1.06,1.05,0,.26,0,.51,0,.77-.01,.62-.37,.98-1.01,.99-.94,0-1.88,0-2.82,0-.11,0-.21,0-.34,0v8.68c.43,0,.85,0,1.27,0,2.31,.03,4.21,1.53,4.79,3.77,.25,.99,.17,1.96-.16,2.91-1.08,3.08-2.15,6.16-3.23,9.23-.57,1.61-1.71,2.58-3.4,2.9-.04,0-.07,.03-.1,.05h-11.27Zm9.97-8.55c0-.48,0-.94,0-1.41,0-.89,.32-1.22,1.21-1.22,1.75,0,3.5,0,5.25,0,.2,0,.3-.04,.36-.24,.11-.38,.26-.74,.38-1.12,.8-2.39-.55-4.82-3.01-5.33-.69-.14-1.42-.06-2.12-.11-.22-.02-.5-.1-.62-.26-.15-.2-.24-.5-.24-.76-.02-2.73-.01-5.45-.01-8.18,0-.11,0-.23,0-.37-.34,0-.64,0-.93,0-.64,0-1.28,0-1.93,0-.28,0-.46-.2-.47-.44,0-.25,.2-.44,.48-.46,.08,0,.16,0,.24,0,2.14,0,4.29,0,6.43,0,.12,0,.23,0,.36,0v-.99H21.25v.99c.14,0,.26,0,.38,0,3.22,0,6.44,0,9.67,0,.47,0,.69,.14,.69,.46,0,.32-.21,.45-.69,.45-1.83,0-3.66,0-5.48,0-.12,0-.23,0-.38,0,0,.15,0,.27,0,.38,0,2.74,0,5.47,0,8.21,0,.67-.31,.97-.98,.98-.59,0-1.19,0-1.77,.06-2.03,.23-3.58,2.11-3.49,4.15,.04,.88,.4,1.66,.68,2.47,.02,.06,.15,.11,.23,.11,.39,.01,.79,0,1.19,0,.35,0,.54,.18,.54,.46,0,.28-.21,.45-.55,.45-.34,0-.68,0-1.06,0,.1,.29,.2,.53,.27,.79,.05,.19,.16,.23,.34,.23,1.03,0,2.06,0,3.08,0,.52,0,.78,.25,.79,.78,.01,.5,0,1.01,0,1.51,0,.1,.01,.21,.02,.31h4.82c0-.11,0-.21,0-.31,0-.51,0-1.03,0-1.54,0-.48,.29-.75,.76-.75,.44,0,.89,0,1.33,0,.44,0,.72,.27,.74,.71,.01,.37,0,.73,0,1.1,0,.26,0,.53,0,.79h4.84c0-.6,0-1.18,0-1.76,0-.6,.25-.85,.85-.85,1.02,0,2.04,0,3.05,0,.09,0,.24-.04,.26-.11,.12-.28,.21-.58,.31-.89h-5.49c0,.12,0,.23,0,.33,0,.5,0,1.01,0,1.51-.01,.52-.26,.76-.77,.76-.4,0-.79,0-1.19,0-.63,0-.85-.23-.85-.86,0-.58,0-1.16,0-1.74h-4.86c0,.34,0,.65,0,.97,0,.32,0,.63,0,.95,0,.37-.25,.66-.61,.67-.52,.02-1.05,.01-1.57,0-.31,0-.56-.24-.6-.55-.02-.16-.02-.31-.02-.47,0-.52,0-1.04,0-1.59-.14,0-.25,0-.36,0-.6,0-1.21,0-1.81,0-.35,0-.54-.17-.54-.45,0-.28,.17-.45,.51-.45,.72,0,1.44-.02,2.16,0,.58,.02,.94,.41,.94,1,0,.21,0,.41,0,.62,0,.33,0,.66,0,.99h1.01c0-.56,0-1.09,0-1.62,0-.57,.35-.98,.92-.98,1.6-.02,3.2-.02,4.8,0,.57,0,.92,.41,.92,.98,0,.54,0,1.08,0,1.64h1.01Zm-14.38,.2c0,.05,.01,.1,.03,.15,.6,1.71,1.2,3.42,1.79,5.13,.08,.22,.21,.26,.42,.26,3.67,0,7.33,0,11,0,.13,0,.26,0,.38,.02,.21,.03,.33,.17,.35,.38,.02,.22-.07,.39-.29,.46-.12,.04-.25,.04-.38,.04-3.44,0-6.88,0-10.31,0h-.41c.72,.69,1.51,1.01,2.41,1.01,3.37,.01,6.74,0,10.11,0,.56,0,1.1-.13,1.59-.4,.27-.15,.52-.35,.78-.53-.01-.03-.03-.05-.04-.08-.28,0-.57,0-.85,0-.3,0-.59,0-.89,0-.39,0-.62-.31-.49-.62,.1-.24,.3-.29,.53-.29,.67,0,1.35-.03,2.01,.01,.36,.02,.5-.12,.6-.43,.55-1.61,1.12-3.22,1.68-4.83,.03-.09,.06-.18,.09-.28h-2.86s-.03,.05-.03,.07c0,.52,0,1.05,0,1.57,0,.57-.37,.98-.93,.99-1.6,.02-3.2,.02-4.8,0-.55,0-.91-.4-.93-.95-.02-.45,0-.91,0-1.36,0-.1-.01-.21-.02-.31h-.96s-.02,.06-.02,.08c0,.49,0,.99,0,1.48,0,.71-.38,1.07-1.09,1.07-1.49,0-2.98,0-4.48,0-.72,0-1.1-.38-1.1-1.09,0-.51,0-1.02,0-1.54h-2.88Z"/>
    </g>
  </g>
</svg>