<?xml version="1.0" encoding="UTF-8"?>
<svg id="Capa_2" data-name="Capa 2" xmlns="http://www.w3.org/2000/svg" viewBox="0 0 61.89 61.89">
  <defs>
    <style>
      .cls-1 {
        fill: #25b4bd;
      }

      .cls-2 {
        fill: none;
        stroke: #fff;
        stroke-linecap: round;
        stroke-linejoin: round;
        stroke-width: 1.02px;
      }
    </style>
  </defs>
  <g id="Capa_1-2" data-name="Capa 1">
    <g>
      <circle class="cls-1" cx="30.95" cy="30.95" r="30.95"/>
      <g>
        <path class="cls-2" d="M35.85,28.41h1.41c.99,0,1.23,.73,1.06,1.62,0,0-.4,4.56-.53,5.01-.13,.45-.4,1.11-1.07,1.11h-5.34c-1.46,0-1.55-1.41-2.58-1.41h-1.41"/>
        <path class="cls-2" d="M30.85,31.56c1.37,0,2.35-.92,2.6-2.03,.09-.41,.21-.82,.41-1.2,.12-.23,.24-.47,.28-.59,.06-.2,.31-.59,.31-1.52,0-.93-.11-1.39-.67-1.86-.53-.45-1.33-.25-1.33,.26v.53c0,1.12-.83,1.42-1.68,2.26,0,0-.9,.99-1.97,.99h-1.41"/>
        <rect class="cls-2" x="23.87" y="27" width="3.52" height="9.16"/>
        <polygon class="cls-2" points="37.2 44.14 33.61 42.21 31.24 45.52 28.75 42.29 25.23 44.36 24.27 40.4 20.22 40.85 20.95 36.84 17.07 35.61 19.37 32.24 16.32 29.54 19.79 27.4 18.11 23.69 22.14 23.15 22.12 19.07 26.03 20.22 27.66 16.48 30.76 19.12 33.77 16.37 35.54 20.05 39.4 18.76 39.52 22.83 43.58 23.23 42.03 27 45.57 29.01 42.62 31.83 45.04 35.11 41.21 36.48 42.08 40.46 38.02 40.15 37.2 44.14"/>
      </g>
    </g>
  </g>
</svg>